<?xml version="1.0" encoding="utf-8"?>
<!-- Generator: Adobe Illustrator 22.1.0, SVG Export Plug-In . SVG Version: 6.00 Build 0)  -->
<svg version="1.1" id="Layer_1" xmlns="http://www.w3.org/2000/svg" xmlns:xlink="http://www.w3.org/1999/xlink" x="0px" y="0px"
	 viewBox="0 0 1024 1024" style="enable-background:new 0 0 1024 1024;" xml:space="preserve">
<style type="text/css">
	.st0{fill:#FFFFFF;}
</style>
<g>
	<path class="st0" d="M630.5,470.4c0.4-2.3,2.3-2.7,4.2-2.8c2.2-0.1,3.7-1.2,4.1-3.1c0.6-2.7,2.2-4.5,3.9-6.5
		c2.2-2.5,4.3-5.1,6.4-7.7c1.9-2.5,3.5-5.4,5.8-7.4c3.7-3.2,7.6-6.3,12.1-8.5c2.1-1,3.9-2.6,5.9-3.8c0.9-0.6,1.9-1,2.9-1.4
		c1.2-0.5,2.4-0.9,3.5-1.5c4-2.1,7.9-4.8,12.4-5.3c4-0.5,7.7-1.6,11.4-2.9c2.5-0.9,5-1.8,7.5-2.8c4.5-1.8,8.9-3.8,13.3-5.7
		c0.3-0.1,0.5-0.3,0.7-0.5c2.8-3,6.6-4.3,10.3-5.7c3.7-1.4,3.9-1.5,3.8-5.9c-0.1-2.5-1.4-3.6-4-3.8c-2.2-0.1-4,0.9-5.8,2
		c-3.6,2.2-7.3,4.3-10.9,6.5c-0.7,0.4-1.3,0.8-1.9,1.4c-2.9,2.6-6.5,3.7-10.2,4.3c-3,0.4-5.5,1.5-7.8,3.2c-0.8,0.6-1.8,1.3-2.8,1.6
		c-2.8,0.8-5.7,1.9-8.6,2.1c-4.2,0.3-7.5,3-11.4,4c-0.6,0.1-1.2,0.8-1.5,1.3c-1.6,2.7-4,4.1-6.8,4.8c-1.7,0.4-3,1.2-4.1,2.7
		c-1.6,2.3-3.8,3.3-6.7,2.9c-1.9-0.2-3.8-0.5-4.6-2.6c-0.5-1.4,0.6-3.1,2.8-4.3c3.2-1.7,5.7-4.2,7.8-7.1c0.9-1.3,1.6-2.8,2.7-3.9
		c1-1.1,2.4-2.1,3.8-2.7c2.8-1.1,5.8-1.9,8.7-3c1.5-0.5,2.8-1.4,4.2-2.2c2.2-1.3,4.3-2.9,6.5-4.1c6.7-3.6,13.4-7,20.2-10.5
		c1.7-0.9,3.5-2,5.3-2.6c2.5-0.9,4.9-1.9,6.8-4c0.6-0.7,1.6-1.1,2.5-1.5c4.8-2.2,9.6-4.2,14.3-6.4c2.5-1.2,4.7-2.8,7.1-4.1
		c1.2-0.7,2.4-1.3,3.6-1.9c0.8-0.4,1.6-0.7,2.4-1.1c4.2-2.5,8-5.7,12.6-7.7c3-1.3,5.6-3.7,8.3-5.7c1.5-1.2,2.1-3,2.4-4.9
		c0.5-3.9-3.5-7.4-7.3-5.8c-2,0.9-4.1,1.5-5.9,2.6c-1.5,0.9-2.7,2.3-4,3.4c-1.4,1.3-2.8,2.8-4.3,4c-2.3,1.8-4.8,3.4-7.2,5.2
		c-3.6,2.7-6.9,5.6-11.2,7c-0.5,0.2-1,0.6-1.5,0.9c-1.7,1-3.2,2.4-5,3.1c-3.8,1.3-7,3.6-10.1,6c-0.5,0.4-1,0.7-1.5,1
		c-5.2,3.2-10.5,6.3-15.7,9.5c-1.9,1.2-4,2.1-5.9,3.4c-2.9,1.9-6.1,3.1-9.5,3.9c-0.9,0.2-1.8,0.6-2.8,0.9c-2,0.7-4.1,1.3-6.1,2
		c-1.7,0.6-3.6,1.1-5.2,2c-4.2,2.4-8.5,4.6-13.1,6.1c-1.3,0.4-2.7,1.3-3.6,2.3c-2.2,2.4-4.4,4.6-7.2,6.4c-4.1,2.6-8.6,4-13,5.7
		c-1.3,0.5-2.7,0.4-4.1,0.7c-1.6,0.3-3.3,0.5-4.9,1c-1.8,0.6-3.4,1.5-5.1,2.4c-3.5,1.7-5.4,0.6-5.3-3.3c0.2-5.1,3.4-8.5,7.1-11.3
		c1.8-1.3,3.1-2.6,3.7-4.7c0.9-3.7,2.7-7,5-10c1.2-1.5,2.2-3.3,3.2-5c0.7-1.4,1.7-2.2,3.1-3c2.7-1.5,5.9-2.8,7.8-5.2
		c3.7-4.5,9.2-7.3,11.7-12.8c0.1-0.3,0.4-0.4,0.6-0.6c3.2-2.9,6.5-5.8,9.6-8.8c1.8-1.8,3.4-3.8,5.1-5.7c1.1-1.2,2.2-2.6,3.4-3.6
		c3-2.5,6.1-5,9.2-7.4c0.8-0.6,1.6-1.2,2.4-1.7c2.1-1.3,3.7-2.9,4.8-5.1c0.6-1,1.3-2.1,2.2-2.8c4.3-3.4,8.6-6.6,12.9-9.9
		c1-0.8,2.1-1.5,2.9-2.5c1.8-2.1,1.9-5.1,0.6-7.5c-1.8-3.2-5.5-3.9-8.3-1.4c-0.9,0.9-1.7,1.9-2.5,2.9c-1.9,2.4-3.7,4.8-5.6,7.3
		c-0.6,0.8-1.4,1.5-1.8,2.3c-1.3,2.6-3.4,4.5-5.8,5.7c-3,1.5-5,4.1-7.2,6.4c-3.1,3.2-6.4,6.3-9.5,9.5c-3.4,3.6-7.4,6.7-11,10.2
		c-3.1,3-5.7,6.2-8,9.8c-1.3,2-2.8,3.6-4.7,4.9c-2.7,1.8-5.4,3.6-8.1,5.4c-0.7,0.4-1.4,0.7-2,1.2c-1.3,1-2.8,1.9-3.9,3
		c-2.1,2.2-4,4.7-6.2,6.7c-3.3,3-5.9,6.5-7.5,10.5s-4.4,6.3-8,8.3c-3.2,1.8-6.3,4.1-9,6.6c-2.2,2.1-4.2,4.4-6.8,6
		c-3,1.8-6,3.8-9.2,5.3c-3,1.5-6.1,3.3-9.8,2.5c-0.8-0.2-1.8,0.2-2.5,0.5c-3.7,1.6-5.7,0.7-6.8-3.2c-0.6-2.5-0.8-5-0.3-7.6
		c0.6-2.9-1.1-4.5-4-4.3c-2.5,0.2-4.5,1.1-5.7,3.5c-1,1.9-2.8,3.1-4.9,3.6c-0.6,0.1-1.5,0.3-2,0c-1.8-1.2-3.7-2.4-5-4
		c-1.1-1.5-2-2.9-3.9-3.7c-1.8-0.7-1.8-2.1-0.2-3.4c2-1.6,2.3-3.5,0.8-5.6c-0.8-1.1-1.7-2.2-2.4-3.4c-0.8-1.3-1.9-1.6-3.3-1.3
		c-1.3,0.4-2.6,1-4,1.2c-3,0.5-5,1.9-6,4.9c-0.6,1.8-2,3.1-3.8,4c-1.2,0.6-2.3,0.4-3.4-0.3c-1.1-0.7-1.2-1.7-0.9-2.9
		c0.4-1.4,0.5-2.9,1-4.3c0.5-1.5,0-2.2-1.3-2.7c-1.1-0.4-2.3-0.8-3.3-1.3c-4.1-2.2-4.8-3.8-3.9-8.4c0.1-0.6,0.2-1.2,0.3-1.7
		c0.6-2.8,0.4-5.4-0.3-8.2c-1.3-4.5-1.6-9.1,0.1-13.7c0.4-1.1,0.4-2.5,0.2-3.7c-0.3-2.4-0.9-4.8-1.4-7.2c-1.1-4.8-1.3-9.8-3.6-14.3
		c-0.3-0.7-0.5-1.5-0.5-2.3c0.1-2,0.2-3.9,0.5-5.9c0.3-2.1-0.3-3.9-1.5-4.5c-2.6-1.1-6.2,1-6.3,3.8c0,1.5,0.1,3,0.5,4.4
		c1,3.5,1.1,7.1,0.5,10.6c-0.5,3,0,5.5,2,7.7c1.7,1.8,2.4,4,2.4,6.5c0,3,0.1,5.9,0,8.9c0,1.1-0.4,2.3-1,3.2
		c-0.7,1.1-0.9,2.2-0.4,3.4c0.4,1.2,0.8,2.5,1.5,3.6c0.9,1.6,1,3.1,0.7,4.8c-0.3,1.8-0.8,3.8-0.4,5.5c0.9,4.2-0.4,7.9-2.7,11.2
		c-2,2.9-4.6,5.4-8.5,5.8c-2.3,0.2-3-0.1-3.9-2.2c-0.6-1.3-0.8-2.8-1.4-4.2c-0.4-1.1-0.9-2.2-1.6-3.1c-0.4-0.5-1.4-0.9-2-0.8
		c-0.6,0.2-1.2,1-1.4,1.7c-0.2,0.8-0.2,1.8,0,2.6c0.3,1.4,0.3,2.7-1.1,3.7c-1.5,1.1-2.5,0.2-3.8-0.4c-1.9-0.8-3.9-1.4-5.8-2.1
		c-4.9-1.8-9.9-3.2-13.9-7c-1.5-1.4-3.6-2.6-5.6-3.2c-3.1-0.9-5.9-2.2-8.5-4c-1-0.7-2-1.3-3-1.9c-4.9-2.5-9.9-4.8-14.8-7.3
		c-1.5-0.8-2.9-1-4.5-0.2c-2.6,1.3-5.1,0.6-6.8-1.2c-3.4-3.5-6.9-7-8.7-11.9c-0.7-1.9-1.9-3.8-3.4-5.1c-4.9-4.4-6.5-10.2-7.7-16.2
		c-0.5-2.5-1.3-3.2-3.8-2.9c-1.8,0.2-3.7,0.5-5.6,0.5c-2.2,0.1-4,1-5.6,2.4c-1.4,1.2-1.9,3.4-1,4.8c1.3,2,2.7,4,4.6,5.7
		c2.6,2.4,4.8,5.3,6.6,8.2c1.8,2.8,3,6,4.4,9c1,2.2,2.6,3.9,4.4,5.5c1,0.8,1.8,1.8,2.7,2.7c1.3,1.5,2.4,3.1,3.9,4.4
		c2.6,2.3,5.3,4.4,7.9,6.7c2.9,2.5,6,4.8,7.2,8.8c0.2,0.7,0.8,1.4,1.2,2c2.2,3.2,4.4,6.3,6.6,9.5c2.5,3.6,2.1,6.1-1.5,8.5
		c-1.1,0.7-2.2,1.3-3.3,2c-0.9,0.5-1.7,1-2.6,1.5c-2.5,1.4-3.6,3.5-3.4,6.4c0.1,1.3,0.1,2.6,0,3.9c-0.1,1.6-0.6,3.3-2.2,4
		c-3.7,1.6-7.4,3.2-11.3,4.4c-3.8,1.1-7.7,1.7-11.6,2.5c-1.5,0.3-3.1,0.6-4.7,0.5c-3.4-0.2-6.4,0.8-9.4,2.2
		c-1.5,0.7-3.1,1.4-4.7,1.9c-3.8,1.1-7.6,2.1-11.4,3c-2.3,0.5-4.7,0.8-7,1.3c-1.3,0.3-2.6,0.7-3.8,1.3c-1,0.5-1.7,1.3-2.7,1.9
		c-1.9,1.2-3.4,2.7-4.1,4.9c-0.7,2-2.1,2.5-4.1,2.6c-4.6,0.2-9.3,0.5-13.9,1.1c-4.3,0.6-8.5,1.7-12.7,2.7c-4.3,1.1-8.7,0.5-12.9-0.1
		c-5.5-0.9-10.9-1.8-16.5-1.5c-2.3,0.1-4.8-0.1-7-0.6c-4.3-0.9-8.6-1-12.9-0.3c-7.8,1.2-15.5,3.5-23.5,2.1c-0.3-0.1-0.6,0-0.9,0
		c-4.4,0.3-8.7-0.3-12.9-1.5c-5.1-1.5-10.1-0.6-14.5,2.1c-6.6,4-13.6,3.4-20.4,1.9c-3.8-0.8-7.4-1.6-11.3-1.9
		c-3.1-0.3-6.3-0.8-9.3-1.7c-3.6-1-7.1-1.5-10.8-0.9c-4,0.6-8,0.8-12,1.9s-8-1.1-12-1.2c-0.3,0-0.6-0.1-0.9-0.1
		c-7.3,0-14.5-1.3-21.6-2.9c-9.8-2.1-19.8-2.6-29.7-2.1c-8.2,0.4-16.1-1-23.9-3.1c-3.3-0.9-6.6-1.2-9.9-1c-8.4,0.6-13.1,5.3-13.2,13
		c-0.1,2,0.7,3.5,2.2,4.9c4.3,3.8,9.3,5.4,15,5.2c11.1-0.3,22.1,0.4,33.1,1.7c3.2,0.4,6.5,0.6,9.8,0.5c7.9-0.2,15.8-0.7,23.6-0.9
		c4.3-0.1,8.7-0.2,13,0c6.1,0.3,12.2,0.3,18.1,2.5c1.1,0.4,2.5,0.1,3.8,0c1.1,0,2.2-0.3,3.2-0.2c1.9,0.3,3.9,0.8,5.8,1.3
		c4.1,1.2,8.2,1.2,12.3,0.8c0.9-0.1,1.8-0.1,2.6-0.1c5.1,0.2,10.1,1.3,15,2.7c4.2,1.2,8.6,2,12.3,4.1c5.9,3.5,12.3,5.2,18.7,7
		c1.9,0.5,3.9,0.5,5.8,0.7c2.2,0.2,4.3,0.2,6.5,0.6c2.9,0.5,5.8,1.1,8.7,1.9c4.3,1.2,8.6,1.2,12.9,0.8c2.1-0.2,4.1,0.1,6.1,0.5
		c2.7,0.6,5.4,1.4,8.1,1.2c6-0.3,12-1.1,17.9-1.9c2-0.3,3.7-0.2,5.4,0.8c3.3,1.9,7,2.7,10.8,2.9c6,0.3,11.9,1.3,17.8,2.5
		c2.5,0.5,4.9,1.6,7.4,2.2c7.3,1.5,14.2,4.2,21.1,6.8c1.8,0.7,3.6,1.7,4.3,3.4c0.8,1.9,1,4.1,1.3,6.2c0.1,0.4-0.3,0.9-0.7,1.3
		c-1.7,1.8-3.4,3.6-5.2,5.3c-1,1-2.2,1.7-3.2,2.6c-2.7,2.5-5.2,5.1-7.9,7.6c-0.7,0.7-1.6,1.1-2.4,1.7c-0.8,0.6-1.7,1-2.4,1.7
		c-3.5,4.1-8.3,6.2-13.3,7.9c-4.4,1.5-8.3,3.4-11.3,7.2c-2.6,3.2-6,5-10.4,4.7c-2.1-0.2-3.9,0.2-5.3,2c-0.4,0.6-1.3,1-2,1.2
		c-4.9,1.1-9,3.8-13.4,6.2c-8,4.3-16.3,7.9-25.2,10.1c-7.3,1.8-14.6,3.5-21,7.7c-0.5,0.3-1.1,0.5-1.6,0.7c-3.2,1.5-6.7,1.7-10.1,2.1
		c-5.6,0.7-11,2.4-16.7,2.6c-1.2,0-2.6,0.6-3.4,1.5c-3,3.6-6.8,5.9-10.6,8.4c-1.8,1.2-3.5,1.6-5.5,1.4c-1.5-0.1-3-0.2-4.4,0.2
		c-4.2,1.2-7.8,3.5-10.8,6.5c-2.6,2.6-5.5,4.5-9,5.4c-1.2,0.3-2.6,0.5-3.8,0.1c-4.8-1.5-9.3-0.8-13.9,0.7c-3.7,1.2-6.8,2.7-8.6,6.6
		c-1.4,3.1-1.3,7.8,1.5,9.7c2.9,2,6,3.9,9.8,3.6c2.9-0.2,5.9-0.4,8.8-0.7c0.8-0.1,1.7-0.6,2.4-1c7-3.9,14.4-6.7,22.3-8.1
		c1.3-0.2,2.6-0.1,3.8-0.3c3.8-0.4,7.6-0.8,10.9-3.1c1.5-1,3.4-1.5,5.1-2.2c1-0.4,2.2-0.5,3-1.1c3.4-2.1,7-3.5,10.8-4.7
		c5.4-1.8,10.5-4.5,16.1-5.9c0.9-0.2,1.7-0.6,2.4-1c3.2-2,6.7-3,10.3-3.5c3.3-0.5,6.6-2.4,10.1-1.1c0.5,0.2,1.3-0.2,2-0.4
		c3.3-1.1,6.7-1.4,10.2-1.2c1.6,0.1,3.2,0,4.7,0c4.1-0.2,8.2-0.1,12.3-0.9c2.3-0.5,4.8-0.5,7.1,0c3.1,0.6,6.1,0.4,9.1,0.3
		c3.5-0.1,7.1-0.2,10.5,0.9c4,1.4,8.1,1.5,12.1-0.4c2.2-1.1,4.6-1.9,7-2.4c2-0.4,4.2-0.6,6.1-0.1c5.8,1.5,11.6,2.3,17.5,2.2
		c3.2,0,6.6,0.4,9.4,2c3.6,2.1,7.5,2.9,11.6,2.7c3.3-0.2,6.5,0.1,9.6,1.3c0.7,0.3,1.5,0,2.3-0.1c2.8-0.5,5.1,0.3,6.7,2.7
		c1.3,1.9,2.4,3.8,3.7,5.7c0.5,0.7,1,1.5,1.8,1.9c1.6,1,2.8,2,2.6,4.2c-0.1,0.8,0.4,1.7,0.9,2.4c1,1.5,0.9,3,0,4.5s-1.9,3-3.2,4.2
		c-3,3-6.5,5.4-8.1,9.6c-0.2,0.6-0.8,1.1-1.2,1.7c-0.5,0.8-1.1,1.7-1.4,2.6c-1.1,3.9-3.4,6.1-7.6,6.8c-5.2,0.9-10.2,6.3-10.5,11.1
		c-0.2,2.5-1.3,4.9-2.3,7.3c-0.9,2.4-2.1,4.7-3.1,7c-0.6,1.3-1.1,2.8-1.9,4c-3.5,4.9-7.3,9.5-11.6,13.6c-1.2,1.2-2.2,2.3-4,1
		c-0.4-0.3-1.1-0.1-1.7,0c-3.2,0.6-5.9,0.1-8.6-2c-2.2-1.8-5.2-3.2-8-2.5c-5.2,1.3-10.5,3.1-11.8,9.6c-0.1,0.5-0.3,1-0.6,1.4
		c-0.7,1-0.7,2.1-0.7,3.3c0,3.6-2.2,6.3-3.8,9.3c-0.2,0.3-0.6,0.5-1,0.6c-4.1,1.2-5.7,4.5-7,8.1c-0.5,1.3-1,2.6-1.8,3.7
		c-1.6,2.1-2.1,4.5-2.6,6.9c-0.6,2.9,0.1,4,3,4.7c3.9,0.9,7.9,1.5,11.8,2.6c2.8,0.7,5.3,0.4,7.7-0.9c1.2-0.6,2.4-1.3,3.6-2
		c2.7-1.7,5.5-3,8.6-3.8c1.5-0.4,2.9-1.5,4.3-2.5c1-0.7,1.8-1.5,2.6-2.4c2.6-2.8,5.5-5.3,6.3-9.5c0.5-2.7,1.9-4.9,4.3-6.4
		c1.5-1,3.2-2.3,3.9-3.9c1.7-3.7,4.5-6.4,7.6-8.9c5.8-4.7,11.4-9.5,15.6-16c3-4.7,7.1-9,13.1-10.5c3.2-0.8,5.1-4.4,4.6-7.6
		c-0.1-0.9,0-1.9,0.2-2.8c0.7-2.4,1.2-4.8-0.6-7c-0.9-1-0.9-2.1-0.1-3.2c2.5-3.8,5.8-6.9,8.9-10.1c0.8-0.8,1.7-1.4,2.3-2.2
		c1.6-2.2,3.7-3.9,6.1-5c4.5-2,8.3-4.8,11.6-8.5c1.3-1.4,3-2.2,4.9-2.6c2-0.4,4-1.1,6-1.6c1.2-0.3,2.5-0.7,3.7-0.8
		c1.4-0.1,2.5-0.4,3.4-1.4c1.1-1.2,2.6-1.4,4.1-0.6c0.7,0.3,1.4,0.6,1.6,0.7c2.1-0.5,3.7-0.7,5.3-1.2c0.7-0.2,1.6-0.4,2-1
		c1.1-1.6,2.7-2.2,4.4-2.6c1.7-0.4,3-1.4,3.9-3c0.6-1,1.4-1.9,2.4-2.5c1-0.7,1.4-1.5,1.3-2.8c-0.1-0.9-0.1-1.8-0.1-2.7
		c0.1-2.1,0.8-3.7,2.6-5c1.6-1.2,2.8-3,4.2-4.5c0.2-0.3,0.3-0.7,0.3-1.1c-0.1-1.9-0.9-3.8-0.1-5.8c0.1-0.4-0.3-1.2-0.8-1.5
		c-3-2.6-3.2-6.2-3.7-9.7c-0.1-0.8,0.1-2.1,0.6-2.4c2.4-1.4,5-3.2,8-1.9c2.3,1,4.6,1.4,7.2,1.5c3.2,0.1,5.5,2.6,5.5,5.8
		c0,1.1-0.2,2.2-0.2,3.3c0.1,2-0.8,3.4-2.5,4.3c-0.7,0.4-1.9,0.9-1.8,1.3c0.2,3-1.8,4.9-3.2,7.2c-0.8,1.4-0.5,3.4-0.8,5.2
		s-0.5,3.7-0.8,5.5c-0.4,1.8-1.2,3.6-1.4,5.4c-0.3,2.4-1.1,4.6-2.3,6.6c-2.5,4.3-4.5,8.8-5.9,13.5c-0.9,2.9-2.3,5.6-3.7,8.3
		c-0.6,1.1-1.6,2-2.6,2.8c-1.1,0.9-2,1.7-2.4,3.2c-0.3,1.2-1.2,2.3-1.6,3.5c-0.5,1.5-1.2,3-1.1,4.5c0.5,5.5-1.9,10.1-4.7,14.4
		c-3.4,5.2-6.2,10.6-7.9,16.5c-1.5,5.6-4.3,10.6-7.4,15.4c-0.5,0.8-1,1.7-1.2,2.7c-0.5,1.8,0.3,3.3,2,4.1c0.8,0.4,1.7,0.7,2.5,0.9
		c1.7,0.4,2.9,0,3.7-1.6c0.7-1.4,1.3-2.9,1.7-4.4c1.2-5.1,2-10.3,5.9-14.3c0.1-0.1,0.1-0.2,0.2-0.2c1.8-4.3,4-8.4,5.2-12.8
		c1.1-4,1.6-8.1,3-12c0.2-0.6,0.1-1.4,0.2-2.1c0.2-1.1,0.3-2.2,0.7-3.2c1.7-3.9,3.4-7.8,5.4-11.5c2.6-4.8,5.5-9.4,8.2-14
		c0.6-1,1.1-2.1,1.6-3.1c2.3-4.7,4-9.6,8.2-13.2c1.1-1,1.6-2.7,2.4-4c0.5-0.9,0.9-2,1.6-2.8c2.6-2.7,5-5.3,6.7-8.9
		c1.6-3.4,2.4-6.3,0.9-9.8c-0.8-2-0.6-2.4,1.5-2.9c2.2-0.6,4.2-1.4,6.1-2.7c2.1-1.5,4.3-1.8,6.6-0.2c0.9,0.6,1.9,1.1,2.9,1.4
		c0.6,0.1,1.5-0.2,2-0.6c0.4-0.3,0.5-1,0.8-1.5c1.6-3.1,4.2-4.1,7.3-2.9c1.4,0.5,2.5,0.4,3.5-0.6c1.2-1.1,2.5-2.3,3.8-3.4
		c2.2-1.9,3.6-1.8,5.7,0.2c1,0.9,2,1.9,3,2.8c1,0.8,2.3,0.9,3.3,0.1c1-0.7,0.7-1.8,0.3-2.7c-0.6-1.5-1.2-2.9-1.7-4.4
		c-1.1-3.4,0.7-5.4,4.1-5c3.3,0.3,6.7,0.6,10,0.7c3.5,0,6.8-1.1,9.9-2.8c2.6-1.4,5-1.7,7.7-0.9c1.4,0.4,2.8,0.8,4.1,1.2
		c1.1-1.3,0.6-2.3-0.1-3.1c-1.1-1.2-2.4-2.3-3.7-3.4c-1.9-1.7-3-3.7-2.9-6.2c0.1-3.4,2.6-5.1,5.2-6.7c2.1-1.3,3.9-0.5,5.8,0.4
		c1,0.5,2,1,3,1.2c1.8,0.4,3.9-1.1,4.3-2.8c0.3-1.3-0.3-1.8-2.7-2.7c-0.8-0.3-1.6-0.9-2-1.5c-0.7-1.3-1.2-2.6-1.7-4
		c-0.3-0.9-0.2-1.8-0.3-2.7c3.2-0.7,5.6,0.1,8,1.4c0.6,0.3,1.1,0.8,1.8,1.1c1.3,0.5,2.4-0.4,1.9-1.6c-0.4-1.2-1.2-2.3-2.1-3.1
		c-2.7-2.5-2.8-2.5-1.5-6c0-0.1,0.1-0.2,0.1-0.3c0.5-3.2,2.8-4.8,5.5-6c1.1-0.5,2.2-1,3.1-1.7c5-4.3,10.8-7.2,16.3-10.7
		c0.6-0.4,1.3-0.5,1.9-0.7c3.6-1.1,7.2,0.1,10.9,0.4c1.5,0.1,2.9,0.2,4.3-0.5c2.5-1.2,5-2.3,7.4-3.6c2.8-1.5,5.5-3.1,8.2-4.7
		c1.1-0.6,1.4-1.4,0.7-2.4c-0.6-0.8-1.3-1.6-2.1-2c-2.1-1.1-4.3-1.9-6.5-2.9c-1-0.4-1.9-0.8-2.8-1.2c0.3-1.5,0.6-2.6,0.7-3.8
		c0.2-1.3,0.8-2.2,2.1-2.5c1.2-0.3,2.4-0.7,3.7-1.1c0.6-0.2,1.3-0.4,1.9-0.7c2.8-1.4,6.4-1.2,8.6-3.9c0.1-0.1,0.2-0.1,0.3-0.1
		c2.2-0.5,4.4-1,6.6-1.5c0.8-0.2,1.7-0.3,2.2-0.8c1.7-1.7,4.1-2.4,6.1-3.6c3.7-2.2,7.4-2.4,11.4-1.5c5.1,1.2,10.1,1,15.1-0.7
		c4-1.4,8-2.7,12-4c0.8-0.3,1.8-0.2,2.6-0.3c2.4-0.2,4.7-0.4,7.1-0.7c1.5-0.2,2.6-1.4,2.6-2.8c0-1.3-0.3-2.6-0.7-3.7
		c-0.2-0.6-1.2-1.1-1.9-1.2c-1-0.1-2.1,0.1-3.2,0.4c-1,0.2-1.9,0.6-2.8,0.8c-2.1,0.3-4.3,0.4-6.5,0.7c-5.2,0.8-10.2,2.3-14.8,4.8
		c-1.7,0.9-3.6,1.8-5.5,2.1c-3.9,0.7-7.8,0.8-11.7,1.4c-2.7,0.4-5.5,0.9-8,1.9c-2.7,1.1-5.4,1.9-8.3,1.7c-1.8-0.1-3.6,0-5.3-0.1
		c-0.9,0-1.9-0.1-2.6-0.5c-2.3-1.3-4.9-1.4-7.4-1.9s-4.9-1.4-7.3-2.2c-1.1-0.4-2-1.1-3.6-2c2.2-0.9,3.8-1.6,5.3-2.2
		c0-0.2,0-0.4-0.1-0.7c-1.5-0.2-3.1-0.1-4.5-0.5C633.3,472.5,632.1,471.4,630.5,470.4z M892.2,448.8c0.8-0.2,2.2-0.6,3.6-0.9
		c4.8-1.1,9.4-3,14.4-2.8c2.4,0.1,4.4-0.9,6.4-2s2.8-2.8,2.8-4.8c0-1.9-0.4-3.7-0.4-5.6c0-2.5-1.1-4.4-2.9-5.9
		c-1.9-1.6-3.5-3.5-4.6-5.7c-1.2-2.2-3.1-3.5-5.6-3.9c-1.2-0.2-2.6-0.5-3.6-1.1c-4.3-2.7-9.5-3.9-13.5-7.1c-0.4-0.4-1.1-0.4-1.6-0.6
		c-7-2.4-14-3.4-21.2-1c-4.1,1.3-7.4,4.1-10.7,6.7c-0.3,0.3-0.4,0.9-0.7,1.3c-1,1.8-1.9,3.7-3.1,5.3c-1.4,1.9-8.5,3.4-10.5,1.9
		c-2.6-1.8-4.9-1.2-7.5,0c-3.4,1.6-6.9,2.9-10.4,4.3c-2.3,0.9-4.2,2.1-5.5,4.2c-1.8,2.9-3.5,5.9-5.4,8.8c-1.2,1.8-1.5,3.8-1.4,5.9
		c0.1,1.2,0.1,2.4,0.3,3.5c0.2,1,0.7,2,1.1,3c0.7,1.6,1.5,3.2,2,4.8c0.5,1.9-0.2,3.5-1.9,4.6c-0.8,0.5-1.6,0.9-2.3,1.4
		c-4,3-3.3,8.9,1.3,10.8c2.1,0.9,4.4,1,6.5-0.5c1.7-1.2,3.4-2.3,5-3.6c1.6-1.3,3.4-1.7,5.3-1.1c2.8,1,5.5,1.3,8.4,0.4
		c0.8-0.2,1.8,0.1,2.6,0c2.3-0.2,4.8-0.1,7-0.9c3.3-1.1,6.6-2.7,9.7-4.4c2.9-1.6,5.5-2.2,8.4,0.2c1.9,1.6,5.3,1.2,6.8-0.5
		c2.4-2.7,5.7-3.9,8.7-5.3c2.8-1.3,5-2.8,6.3-5.8C886.8,450,888.4,448.1,892.2,448.8z M678,534.7c3-0.1,5.9-0.4,8.4-2.2
		c1.7-1.2,3.4-2.3,5.2-3.4c1.3-0.8,2.6-1.8,3.9-1.9c4.2-0.4,8.4-1.3,12.6-0.2c1.7,0.4,3.5,0.5,5.3,0.5c2.3,0,4.1,0.9,6.1,1.8
		c4.6,2.1,9.4,4,14.2,5.6c2.2,0.7,4.7,0.6,7,0.9c3.7,0.5,7.4,1.2,11.1,1.8c3.8,0.6,7.5,1.8,11.4,0.8c0.5-0.1,1-0.1,1.5,0
		c3.4,0.6,6.7,1.3,10.1,1.9c4.4,0.7,8.7,1.6,13.1,2c3.7,0.3,7.5,0.4,11,1.8c2.1,0.8,3.7-0.3,3.9-2.6c0.1-1.4-0.1-2.8-0.2-4.1
		c-0.2-1.9-1-2.3-2.8-2.1c-2.2,0.2-4.3,0.4-6.5,0.4c-3.1-0.1-6.1-0.3-9.2-0.5c-3.3-0.2-6.7-0.3-10-0.7c-6.9-0.8-13.9-1.9-20.8-2.7
		c-4-0.5-8-1.1-12-1.3c-3.9-0.2-7.5-1.3-10.2-4s-6.1-3.8-9.6-4.2c-3.7-0.4-7.1-1.3-10.4-3.1c-1.3-0.7-2.7-0.7-4-0.1
		c-3.1,1.3-6.4,1.4-9.6,1.5c-2.9,0-5.6-0.5-8-2.6c-1.4-1.3-3.3-2.2-5.1-3c-0.8-0.4-2-0.6-2.8-0.3c-3.7,1.4-7.4,0.8-11.1,0.9
		c-3.2,0.1-6.6,0-9.7,0.7c-3.5,0.7-6.9,1.5-10.5,0.7c-0.9-0.2-1.8-0.2-2.6,0s-1.9,0.6-2.2,1.2c-2,3.5-2.9,7.3-0.6,10.9
		c1.4,2.2,3.3,4,6.4,4.1c3.1,0,6.2,0.5,9.2,1.7c1.8,0.7,3.7,1.5,5.7,0.4c2.4-1.3,5-1.1,7.5-0.8C675.2,534.4,676.6,534.5,678,534.7z
		 M594.7,571.9c-1.4,0.1-2.4,0.9-2.8,2.6c-1,4.2-1,8.4,0.1,12.6c0.2,0.8,0.9,1.5,1.4,2.1c2.4,3,5.1,5.8,7.1,9c1.4,2.1,2.9,4,4.7,5.6
		c1.3,1.2,2.5,2.5,3.7,3.8c1.6,1.8,2.9,3.7,4.5,5.4c1.8,2,3.7,3.9,5.6,5.7c2.4,2.2,3.8,5,5.6,7.6c2,2.7,4.2,5.3,6.1,8
		c1.5,2,3.1,3.8,5.2,5.2c2.3,1.7,4.5,3.5,6,6c0.5,0.9,1.5,1.5,2.4,2c3.7,2.2,7,4.8,9.1,8.7c0.2,0.4,0.5,0.9,0.8,1.2
		c1.1,1.2,2.3,1.3,3.6,0.2c1.6-1.3,1.9-2.7,0.9-4c-1.7-2.3-3.5-4.5-5.2-6.8c-0.3-0.4-0.7-0.7-1-1.1c-3.3-3.1-6.5-6.3-10-9.2
		c-5.5-4.4-9.4-10.6-15.8-14.2c-1.1-0.6-2-1.9-2.9-3c-1.2-1.5-2.3-3.2-3.6-4.7c-1.2-1.4-1.9-2.9-2.3-4.7c-0.6-2.4-1.5-4.6-3.9-6.1
		c-0.9-0.5-1.4-1.6-2.1-2.4c-1.1-1.4-2.4-2.6-3.4-4.1c-1.5-2.2-3.2-4.3-4.1-6.8c-1.2-3.3-1.8-6.8-2.7-10.3c-0.3-1.2-0.6-2.5-1.1-3.7
		C600,574.4,596.7,571.8,594.7,571.9z M714.1,624.6c-4.7-0.2-7.6,2.1-9.6,4.8c-2.5,3.3-2.7,8.8,3,11.1c5.6,2.2,11.2,4.3,16.4,7.3
		c1.7,1,3.4,2,5.2,2.9c1.2,0.6,2.5,1.3,3.8,1.5c2.5,0.3,4.4,1.5,6.3,2.9c0.5,0.4,1.2,0.8,1.8,1c3.2,1.3,5.5,3.7,7.6,6.4
		c1.4,1.8,3.1,3.6,5.1,4.9c0.9,0.6,2.7,0.5,3.8,0.1c1.1-0.5,0.6-1.9,0.4-2.9c-0.5-2.8-2.4-4.3-4.8-5.1c-5.5-1.7-8.9-5.9-12.3-10.2
		c-2-2.5-4.1-4.8-6.7-6.6c-1.2-0.9-2.2-1.9-3.3-2.9c-1.3-1.2-2.3-2.8-3.7-3.8c-3-2-5.1-4.6-6.6-7.7
		C719.1,625.4,716.8,624.2,714.1,624.6z M618.4,722.6c1-1,2-1.9,2.9-3c1.2-1.3,2.1-2.9,3.4-4.1c2.4-2.4,2.8-5.3,1.4-8.1
		c-1.7-3.5-2.6-7.2-2.7-11.1c0-1.1-0.2-2.2-0.3-3.2c-0.2-2-1.1-3.7-2.5-5.2c-2.6-2.8-5.8-3-9.2-2.9c-2.5,0.1-4.5,1.1-5.9,2.9
		c-2.2,2.7-3.3,5.9-2.6,9.4c0.4,1.9,0.9,3.9,2.5,5.2c2.4,1.9,3.8,4.4,4.6,7.4c0.6,2,1.3,4,2.5,5.6C614,717.9,616.1,720,618.4,722.6z
		 M662.4,498.9c1.1,1.7,1.9,2.8,2.6,3.9c1.4,2.3,3.4,3.9,6.1,4.2c3,0.4,6,1.3,9.1,0.5c1.5-0.4,3.2-0.2,4.7,0c4,0.4,7.8-0.2,11.1-2.6
		c1.1-0.8,2.2-1.2,3.6-0.7c5.7,2.1,11.7,1.4,17.6,1.5c2.1,0,3.6-1.6,3.6-3.5c-0.1-1.9-1.7-3.4-3.8-3.3c-4.3,0.1-8.7,0-12.9,1.3
		c-1.2,0.4-2.6,0.4-3.7,0.1c-3.6-1.1-7.2-0.9-10.8-0.3c-1.6,0.3-3.3,0.3-5,0.2c-3.2-0.1-6.5-0.8-9.7-0.6c-3.5,0.3-6.9,0.4-10.2-0.7
		C664.2,498.8,663.6,498.9,662.4,498.9z M926.2,407.8c5.9,0.3,10.8-1.7,14.9-6c2-2.1,2.1-3.8,0.3-5.9c-1-1.2-2.3-2.2-3.3-3.4
		c-1.2-1.4-2.6-2.1-4.3-2.2c-4.4-0.5-8.6-0.4-12.7,1.6c-2.2,1.1-3.6,2.7-4.7,4.7c-1.9,3.5,0.6,10.2,5.2,10.7
		C923.1,407.6,924.7,407.7,926.2,407.8z M419,678.3c-0.1-4.8-2-7.3-6.7-8.2c-1.5-0.3-3.1,0-4.6,0.2c-2.5,0.3-4.4,1.7-6.1,3.7
		c-1.8,2.1-1.4,4.3-1.1,6.6c0.4,2.9,5.5,7.5,9.1,7.4C413.9,687.9,419.7,683.9,419,678.3z M963.2,404.9c-2.1,0.6-4.1,1.1-6.1,1.8
		c-1.5,0.6-2.2,1.9-2.3,3.5c-0.2,3.3,2.2,6.5,5.8,7.5c4.4,1.3,8.6,0.2,12.6-1.3c0.8-0.3,1.9-1.4,2-2.3c0.3-2.1-0.2-4.1-2-5.5
		C970.2,406.5,967,405.1,963.2,404.9z M860.1,382.8c3.1,0,5.2-1,8.2-3.3c1-0.7,1.5-1.6,1.5-2.7c0.2-4.3-0.9-6.9-5.5-8.3
		c-2-0.6-4.3-0.5-6.4-0.6c-1.5-0.1-2.6,0.7-3.4,2c-1.4,2.5-1.2,5.3-1.5,8c-0.1,0.6,0.5,1.3,0.8,1.9
		C855.4,382.4,858.1,382.4,860.1,382.8z M562.6,402.8c0.6,2.2,0.9,4.4,1.7,6.5c0.7,1.8,2.6,2,3.8,0.5c0.8-0.9,1.4-2.2,1.9-3.3
		c1.4-3.2,2.8-6.4,5-9.3c1.5-2,2.2-4.4,1.1-6.9c-0.8-1.7-3.1-3-5.1-2.9c-1.9,0.1-2.7,1.3-3.3,2.9c-0.4,0.9-0.9,1.7-1.3,2.6
		C564.9,396,562.8,399,562.6,402.8z M530.4,263.4c-0.4,2.8,0.1,6.1,2,9c0.3,0.4,0.4,0.9,0.5,1.4c0.6,1.4,1.2,3.1,2.9,3
		c1.8-0.1,2.3-2,2.8-3.4c0-0.1,0.1-0.2,0.1-0.3c0.3-3.5,1.2-6.9,0.9-10.5c-0.2-2.9-1.6-4.8-3.6-6.5c-1-0.9-2.3-1.3-3.6-0.7
		c-1.3,0.6-2.1,1.7-2.1,3.3C530.4,260,530.4,261.4,530.4,263.4z M440.9,309.5c0-0.3,0-0.8-0.1-1.2c-1-3.8-2.7-7.4-5-10.6
		c-0.3-0.5-0.8-0.9-1.2-1.3c-1.5-1.2-3.4-1.3-4.9-0.2c-1.6,1.1-2.2,2.8-1.5,4.7c0.4,1,1,1.9,1.7,2.8c1.8,2.2,3.7,4.4,5.6,6.5
		c0.6,0.6,1.3,1.2,2.1,1.7C439.8,313.2,440.9,312.5,440.9,309.5z M1005.6,398.5c2.6-0.2,4.6-0.6,6.8-1.8c2.1-1.1,2.5-3.7,0.7-5.4
		c-2.8-2.6-9-3.1-12.2-1c-1.3,0.9-2.3,2-2,3.7c0.2,1.6,1,3.1,2.7,3.6C1002.9,398,1004.2,398.2,1005.6,398.5z M299.1,443.4
		c0.7-0.1,1.5-0.1,2.2-0.3c1.2-0.4,2.5-0.8,2.7-2.3c0.2-1.6-0.7-2.6-1.9-3.4c-1.8-1-3.6-2-5.5-2.8c-0.9-0.4-2.1-0.5-3.2-0.3
		c-1.8,0.3-2.5,1.8-3.1,3.2c-0.5,1.3,0.4,2.2,1.3,3C293.8,442.2,296.2,443.2,299.1,443.4z M485.7,644.5c-2.3,2.7-4,4.6-5.6,6.6
		c-0.4,0.6-0.6,1.5-0.7,2.2c-0.2,1.3-0.4,2.7-0.6,4.1c-0.1,1.2-0.3,2.4,1,3.2c1,0.6,2.9,0.5,3.8-0.5c1.5-1.6,2.9-3.2,3-5.6
		c0.1-2.3,0.1-4.5,0-6.8C486.6,646.9,486.2,646,485.7,644.5z M562.4,614.7c0.6,2.3,1.5,5.3,2.3,8.4c0.1,0.2,0.2,0.3,0.3,0.5
		c1,1.5,2.1,2.1,3.4,1.6c1.5-0.5,2.4-2,2.2-3.7c-0.2-1.3-0.3-2.5-0.5-3.8c-0.4-2.6-1.9-4.5-4.2-5.8
		C563.8,610.8,562.3,611.7,562.4,614.7z M503.6,629c3.6,0,4.9-1.2,4.9-4.7c0-3.1-2-5.1-5.2-5.1c-3.4,0-4.6,1.3-4.6,4.7
		C498.8,627.5,500.2,629,503.6,629z M851,490.5c-5.1-2.4-9.8-0.6-14.5,1.1c-0.3,0.1-0.5,0.3-0.7,0.5c-0.7,0.8-0.8,1.6,0.3,2.2
		c0.5,0.3,1.1,0.5,1.6,0.5c4.1,0.2,8-0.3,11.8-1.7C850.9,492.7,851.4,491.8,851,490.5z M144.4,519.8c0.6,2.6,2.4,2.8,3.8,3
		c2.7,0.3,5.5,0.4,8.2,0.3c1.1-0.1,2.3-0.9,2.3-2.3c0-1.3-1.1-1.7-2-1.7c-2.4-0.2-4.9-0.5-7.3-0.4
		C147.7,518.7,146.1,519.3,144.4,519.8z M301.5,406.9c-1.9,0-2.6,0.5-2.4,1.9c0.1,1,0.5,2.4,1.2,2.8c2.3,1.3,4.7,2.4,7.3,3.2
		c1.6,0.5,2.8-1.2,1.8-2.6C307.3,409.3,304.6,407.4,301.5,406.9z M17,410.8c1.2,0.4,1.9,0.8,2.7,0.9c2.1,0.3,4.2,0.4,6.4,0.6
		c3,0.3,6.1,0.5,9.1,0.7c1.6,0.1,2.5-0.6,2.7-2.3C33.7,409.9,19.8,409.7,17,410.8z M343.2,434.3c-0.4,0.2-1.6,0.4-1.7,0.9
		c-0.2,0.6,0.4,1.8,1,2.2c2.1,1.3,4.4,2.6,6.7,3.5c1.4,0.6,2.2-0.4,2-1.9c-0.4-2.8-1.4-3.8-4.3-4.2
		C345.8,434.6,344.8,434.5,343.2,434.3z M628.7,224.9c0.2,0.4,0.6,1.5,1.1,1.6c0.6,0.2,1.6-0.4,2.3-0.8c0.3-0.2,0.5-0.6,0.6-1
		c0.7-2,1.4-4.1,2.1-6.1c0.2-0.5,0.1-1.2,0.1-1.8c-0.2-1.2-1.3-1.7-2.1-0.8C630.7,218.5,628.9,221.1,628.7,224.9z M777.7,738.3
		c0.7-0.4,1.8-0.6,2.1-1.2c0.3-0.6,0.2-2-0.2-2.4c-1.9-1.5-4-2.8-6.1-3.9c-0.5-0.3-1.9,0.1-2,0.4c-0.3,0.7-0.2,1.8,0.3,2.4
		c1,1.3,2.2,2.5,3.5,3.6C775.8,737.8,776.7,737.9,777.7,738.3z M920.6,351.4c2.3,0,3.8-1,3.9-2.7c0.1-2-1.8-4-3.8-4
		c-2.2,0-3.6,1.3-3.7,3.3C916.9,350,918.3,351.3,920.6,351.4z M198,392.8c-2.2-2.6-7.3-3.8-9.5-2.7c-1.1,0.6-1.2,1.9-0.1,2.2
		c2.3,0.7,4.7,1.2,7.1,1.6C196.2,394.1,197,393.3,198,392.8z M920.4,364c-0.1-1.8-1.1-2.7-2.9-2.6c-1.8,0.1-3,1.6-3,3.7
		c0,1.6,1.5,2.9,3.1,2.9C919.3,367.8,920.5,366,920.4,364z M480,688.5c-3.5,1.9-4.6,4.5-3.5,7.1c0.6,1.5,1.9,1.7,2.9,0.4
		c0.3-0.4,0.6-0.8,0.6-1.3C480.1,692.8,480,690.9,480,688.5z M946.6,435.5c1.5,2.2,3,2.4,5.7,1.2C951.5,434.4,950.1,434,946.6,435.5
		z M562.8,244.9c0,3.5-2.4,6.5-2,10.5C563.2,251.9,563.2,248.4,562.8,244.9z M269.1,764.6c-2.4,0.2-3.9,1-4.9,2.4
		c-0.3,0.4-0.2,1.1-0.3,1.9C266.5,768.5,268.1,767.3,269.1,764.6z M96.8,526.1c-4.6-0.2-4.6-0.2-5.4,0.8
		C93.3,527.9,94.7,526.8,96.8,526.1z"/>
	<path class="st0" d="M488,835.5c-3.1-2.9-3.5-4.8-1.7-8.9c0.6-1.4,1.2-2.7,2-3.9c0.4-0.6,1.4-1.2,1.8-1c0.7,0.2,1.5,1.1,1.6,1.7
		c0.4,2.3,0.6,4.7,0.6,7c0,2.2-1.4,3.8-3.1,5.1C488.8,835.5,488.4,835.5,488,835.5z"/>
	<path class="st0" d="M630.5,470.4c1.6,1,2.8,2.1,4.2,2.6s3,0.4,4.5,0.5c0,0.2,0,0.4,0.1,0.7c-1.5,0.6-3.1,1.3-5.3,2.2
		c1.6,0.9,2.5,1.6,3.6,2c2.4,0.8,4.9,1.7,7.3,2.2c2.5,0.5,5.1,0.7,7.4,1.9c0.7,0.4,1.7,0.4,2.6,0.5c1.8,0.1,3.6,0,5.3,0.1
		c2.9,0.2,5.6-0.6,8.3-1.7c2.5-1,5.3-1.5,8-1.9c3.9-0.6,7.9-0.8,11.7-1.4c1.9-0.3,3.8-1.2,5.5-2.1c4.7-2.5,9.6-4.1,14.8-4.8
		c2.1-0.3,4.3-0.4,6.5-0.7c1-0.1,1.9-0.6,2.8-0.8c1-0.2,2.1-0.5,3.2-0.4c0.7,0.1,1.6,0.6,1.9,1.2c0.5,1.2,0.7,2.5,0.7,3.7
		c0,1.4-1.1,2.6-2.6,2.8c-2.3,0.3-4.7,0.5-7.1,0.7c-0.9,0.1-1.8,0-2.6,0.3c-4,1.3-8.1,2.6-12,4c-5,1.8-10,2-15.1,0.7
		c-4-0.9-7.7-0.7-11.4,1.5c-2,1.2-4.3,1.9-6.1,3.6c-0.5,0.5-1.4,0.6-2.2,0.8c-2.2,0.5-4.4,1-6.6,1.5c-0.1,0-0.2,0-0.3,0.1
		c-2.2,2.7-5.8,2.5-8.6,3.9c-0.6,0.3-1.3,0.5-1.9,0.7c-1.2,0.4-2.4,0.8-3.7,1.1c-1.3,0.3-1.9,1.2-2.1,2.5c-0.1,1.2-0.4,2.3-0.7,3.8
		c0.9,0.4,1.9,0.8,2.8,1.2c2.2,0.9,4.4,1.8,6.5,2.9c0.8,0.4,1.6,1.2,2.1,2c0.7,1,0.4,1.8-0.7,2.4c-2.8,1.5-5.4,3.2-8.2,4.7
		c-2.4,1.3-4.9,2.5-7.4,3.6c-1.4,0.7-2.8,0.6-4.3,0.5c-3.6-0.3-7.2-1.5-10.9-0.4c-0.7,0.2-1.4,0.3-1.9,0.7
		c-5.5,3.5-11.3,6.4-16.3,10.7c-0.9,0.8-2,1.2-3.1,1.7c-2.7,1.2-5,2.8-5.5,6c0,0.1-0.1,0.2-0.1,0.3c-1.2,3.5-1.2,3.5,1.5,6
		c0.9,0.8,1.6,2,2.1,3.1c0.5,1.3-0.6,2.1-1.9,1.6c-0.6-0.3-1.2-0.7-1.8-1.1c-2.4-1.4-4.8-2.2-8-1.4c0.1,0.9,0,1.9,0.3,2.7
		c0.4,1.4,1,2.8,1.7,4c0.4,0.7,1.2,1.2,2,1.5c2.4,0.9,3,1.4,2.7,2.7c-0.4,1.7-2.4,3.2-4.3,2.8c-1-0.2-2-0.7-3-1.2
		c-1.9-1-3.7-1.8-5.8-0.4c-2.6,1.6-5,3.4-5.2,6.7c-0.1,2.5,1.1,4.5,2.9,6.2c1.2,1.1,2.5,2.2,3.7,3.4c0.8,0.8,1.2,1.8,0.1,3.1
		c-1.3-0.4-2.7-0.8-4.1-1.2c-2.7-0.8-5.1-0.5-7.7,0.9c-3,1.6-6.4,2.8-9.9,2.8c-3.3,0-6.7-0.3-10-0.7c-3.5-0.3-5.2,1.6-4.1,5
		c0.5,1.5,1.1,3,1.7,4.4c0.4,1,0.7,2-0.3,2.7c-1,0.8-2.3,0.7-3.3-0.1c-1.1-0.9-2-1.9-3-2.8c-2.1-2-3.5-2-5.7-0.2
		c-1.3,1.1-2.5,2.2-3.8,3.4c-1.1,1-2.1,1.1-3.5,0.6c-3.2-1.2-5.7-0.1-7.3,2.9c-0.3,0.5-0.4,1.2-0.8,1.5c-0.5,0.4-1.4,0.8-2,0.6
		c-1-0.2-2.1-0.8-2.9-1.4c-2.3-1.6-4.6-1.3-6.6,0.2c-1.9,1.4-3.9,2.2-6.1,2.7c-2,0.5-2.3,0.9-1.5,2.9c1.5,3.5,0.7,6.4-0.9,9.8
		c-1.7,3.6-4.1,6.2-6.7,8.9c-0.7,0.8-1.1,1.8-1.6,2.8c-0.8,1.4-1.2,3.1-2.4,4c-4.2,3.6-5.9,8.6-8.2,13.2c-0.5,1.1-1.1,2.1-1.6,3.1
		c-2.7,4.7-5.6,9.3-8.2,14c-2,3.7-3.7,7.6-5.4,11.5c-0.4,1-0.5,2.1-0.7,3.2c-0.1,0.7,0,1.4-0.2,2.1c-1.5,3.9-1.9,8-3,12
		c-1.2,4.4-3.4,8.5-5.2,12.8c0,0.1-0.1,0.2-0.2,0.2c-3.9,4-4.7,9.2-5.9,14.3c-0.4,1.5-0.9,3-1.7,4.4c-0.8,1.6-2,2-3.7,1.6
		c-0.9-0.2-1.7-0.5-2.5-0.9c-1.7-0.8-2.5-2.3-2-4.1c0.3-0.9,0.7-1.9,1.2-2.7c3.2-4.8,5.9-9.7,7.4-15.4c1.6-5.9,4.5-11.3,7.9-16.5
		c2.8-4.3,5.2-8.9,4.7-14.4c-0.1-1.5,0.6-3,1.1-4.5c0.4-1.2,1.3-2.3,1.6-3.5c0.4-1.5,1.3-2.3,2.4-3.2c1-0.8,2-1.7,2.6-2.8
		c1.4-2.7,2.9-5.4,3.7-8.3c1.4-4.8,3.4-9.2,5.9-13.5c1.2-2.1,2.1-4.2,2.3-6.6c0.2-1.8,1-3.6,1.4-5.4c0.4-1.8,0.6-3.7,0.8-5.5
		c0.2-1.7,0-3.8,0.8-5.2c1.4-2.3,3.4-4.1,3.2-7.2c0-0.4,1.1-1,1.8-1.3c1.7-0.9,2.6-2.3,2.5-4.3c0-1.1,0.2-2.2,0.2-3.3
		c0-3.2-2.3-5.7-5.5-5.8c-2.5-0.1-4.8-0.5-7.2-1.5c-3-1.3-5.6,0.4-8,1.9c-0.5,0.3-0.7,1.6-0.6,2.4c0.5,3.5,0.8,7.1,3.7,9.7
		c0.4,0.4,0.9,1.1,0.8,1.5c-0.8,2,0,3.9,0.1,5.8c0,0.4-0.1,0.8-0.3,1.1c-1.3,1.6-2.6,3.3-4.2,4.5c-1.8,1.3-2.5,3-2.6,5
		c0,0.9,0,1.8,0.1,2.7c0.1,1.2-0.3,2-1.3,2.8c-0.9,0.7-1.8,1.6-2.4,2.5c-0.9,1.6-2.2,2.6-3.9,3c-1.8,0.4-3.3,1-4.4,2.6
		c-0.4,0.5-1.3,0.8-2,1c-1.6,0.4-3.2,0.7-5.3,1.2c-0.1-0.1-0.9-0.3-1.6-0.7c-1.5-0.7-2.9-0.6-4.1,0.6c-1,1-2.1,1.3-3.4,1.4
		c-1.3,0.1-2.5,0.5-3.7,0.8c-2,0.5-4,1.1-6,1.6c-1.9,0.4-3.6,1.2-4.9,2.6c-3.3,3.6-7.1,6.5-11.6,8.5c-2.5,1.1-4.5,2.8-6.1,5
		c-0.6,0.8-1.6,1.5-2.3,2.2c-3.2,3.2-6.4,6.4-8.9,10.1c-0.8,1.2-0.7,2.2,0.1,3.2c1.8,2.2,1.4,4.5,0.6,7c-0.3,0.9-0.4,1.9-0.2,2.8
		c0.5,3.2-1.4,6.8-4.6,7.6c-6,1.5-10.1,5.8-13.1,10.5c-4.2,6.5-9.8,11.3-15.6,16c-3.1,2.5-5.9,5.2-7.6,8.9c-0.7,1.6-2.4,2.9-3.9,3.9
		c-2.5,1.6-3.8,3.7-4.3,6.4c-0.7,4.1-3.7,6.6-6.3,9.5c-0.8,0.9-1.7,1.7-2.6,2.4c-1.4,0.9-2.7,2.1-4.3,2.5c-3.1,0.8-5.9,2.1-8.6,3.8
		c-1.2,0.7-2.4,1.4-3.6,2c-2.5,1.3-4.9,1.6-7.7,0.9c-3.9-1-7.9-1.6-11.8-2.6c-2.9-0.7-3.6-1.8-3-4.7c0.5-2.4,1-4.8,2.6-6.9
		c0.8-1.1,1.3-2.4,1.8-3.7c1.3-3.6,2.9-6.9,7-8.1c0.4-0.1,0.8-0.3,1-0.6c1.6-3,3.8-5.7,3.8-9.3c0-1.2-0.1-2.3,0.7-3.3
		c0.3-0.4,0.5-0.9,0.6-1.4c1.3-6.4,6.6-8.3,11.8-9.6c2.7-0.7,5.7,0.8,8,2.5c2.7,2.1,5.4,2.6,8.6,2c0.6-0.1,1.3-0.3,1.7,0
		c1.8,1.3,2.7,0.2,4-1c4.3-4.2,8.1-8.8,11.6-13.6c0.8-1.2,1.3-2.6,1.9-4c1.1-2.3,2.2-4.6,3.1-7s2.1-4.8,2.3-7.3
		c0.3-4.9,5.3-10.3,10.5-11.1c4.2-0.7,6.5-2.9,7.6-6.8c0.3-0.9,0.9-1.8,1.4-2.6c0.4-0.6,1-1.1,1.2-1.7c1.5-4.2,5.1-6.6,8.1-9.6
		c1.2-1.2,2.2-2.7,3.2-4.2c0.9-1.4,1-2.9,0-4.5c-0.5-0.7-0.9-1.7-0.9-2.4c0.2-2.2-1-3.2-2.6-4.2c-0.7-0.4-1.3-1.2-1.8-1.9
		c-1.3-1.9-2.5-3.8-3.7-5.7c-1.6-2.4-3.9-3.2-6.7-2.7c-0.8,0.1-1.6,0.3-2.3,0.1c-3.1-1.2-6.3-1.6-9.6-1.3c-4.2,0.3-8-0.6-11.6-2.7
		c-2.9-1.7-6.2-2.1-9.4-2c-6,0.1-11.8-0.7-17.5-2.2c-1.9-0.5-4.2-0.3-6.1,0.1c-2.4,0.5-4.8,1.3-7,2.4c-4,2-8.1,1.8-12.1,0.4
		c-3.5-1.2-7-1.1-10.5-0.9c-3.1,0.1-6,0.3-9.1-0.3c-2.3-0.4-4.8-0.4-7.1,0c-4.1,0.8-8.2,0.8-12.3,0.9c-1.6,0.1-3.2,0.1-4.7,0
		c-3.5-0.1-6.9,0.1-10.2,1.2c-0.6,0.2-1.4,0.6-2,0.4c-3.6-1.3-6.8,0.6-10.1,1.1c-3.6,0.5-7.1,1.6-10.3,3.5c-0.7,0.5-1.6,0.8-2.4,1
		c-5.6,1.4-10.7,4.2-16.1,5.9c-3.8,1.2-7.4,2.6-10.8,4.7c-0.9,0.6-2,0.7-3,1.1c-1.7,0.7-3.6,1.1-5.1,2.2c-3.3,2.3-7.1,2.7-10.9,3.1
		c-1.3,0.1-2.6,0.1-3.8,0.3c-7.9,1.4-15.3,4.2-22.3,8.1c-0.8,0.4-1.6,0.9-2.4,1c-2.9,0.3-5.9,0.4-8.8,0.7c-3.8,0.3-6.9-1.6-9.8-3.6
		c-2.8-1.9-3-6.6-1.5-9.7c1.8-3.8,4.9-5.4,8.6-6.6c4.6-1.5,9.2-2.3,13.9-0.7c1.1,0.4,2.6,0.2,3.8-0.1c3.5-0.9,6.4-2.8,9-5.4
		c3-3.1,6.6-5.3,10.8-6.5c1.4-0.4,2.9-0.3,4.4-0.2c2.1,0.2,3.8-0.3,5.5-1.4c3.8-2.5,7.6-4.9,10.6-8.4c0.7-0.9,2.2-1.5,3.4-1.5
		c5.7-0.1,11.1-1.8,16.7-2.6c3.4-0.4,6.9-0.6,10.1-2.1c0.5-0.3,1.1-0.4,1.6-0.7c6.4-4.2,13.7-5.9,21-7.7c8.9-2.2,17.2-5.8,25.2-10.1
		c4.3-2.3,8.5-5.1,13.4-6.2c0.7-0.2,1.6-0.6,2-1.2c1.4-1.8,3.2-2.2,5.3-2c4.3,0.3,7.8-1.5,10.4-4.7c3-3.7,6.9-5.6,11.3-7.2
		c4.9-1.7,9.7-3.8,13.3-7.9c0.6-0.7,1.6-1.2,2.4-1.7c0.8-0.6,1.7-1,2.4-1.7c2.7-2.5,5.2-5.1,7.9-7.6c1-0.9,2.2-1.7,3.2-2.6
		c1.8-1.7,3.5-3.5,5.2-5.3c0.3-0.3,0.7-0.9,0.7-1.3c-0.3-2.1-0.6-4.3-1.3-6.2c-0.7-1.7-2.5-2.7-4.3-3.4c-6.9-2.6-13.8-5.3-21.1-6.8
		c-2.5-0.5-4.9-1.6-7.4-2.2c-5.9-1.2-11.8-2.2-17.8-2.5c-3.7-0.2-7.5-1-10.8-2.9c-1.7-1-3.4-1.1-5.4-0.8c-6,0.8-11.9,1.6-17.9,1.9
		c-2.7,0.2-5.4-0.7-8.1-1.2c-2-0.4-4-0.7-6.1-0.5c-4.3,0.3-8.7,0.4-12.9-0.8c-2.8-0.8-5.7-1.4-8.7-1.9c-2.1-0.4-4.3-0.4-6.5-0.6
		c-2-0.2-4-0.2-5.8-0.7c-6.4-1.9-12.8-3.5-18.7-7c-3.6-2.1-8.1-2.9-12.3-4.1c-4.9-1.5-9.9-2.5-15-2.7c-0.9,0-1.8,0-2.6,0.1
		c-4.2,0.4-8.3,0.4-12.3-0.8c-1.9-0.5-3.8-1-5.8-1.3c-1-0.2-2.1,0.1-3.2,0.2c-1.3,0-2.7,0.4-3.8,0c-5.9-2.2-12-2.3-18.1-2.5
		c-4.3-0.2-8.7-0.1-13,0c-7.9,0.3-15.8,0.7-23.6,0.9c-3.2,0.1-6.5-0.2-9.8-0.5c-11-1.2-22-2-33.1-1.7c-5.6,0.2-10.7-1.4-15-5.2
		c-1.5-1.4-2.3-2.9-2.2-4.9c0.2-7.7,4.9-12.4,13.2-13c3.3-0.2,6.6,0.1,9.9,1c7.8,2.1,15.7,3.6,23.9,3.1c10-0.5,19.9,0,29.7,2.1
		c7.1,1.5,14.3,2.9,21.6,2.9c0.3,0,0.6,0.1,0.9,0.1c4,0.1,8,2.3,12,1.2c4-1.1,8-1.3,12-1.9c3.7-0.5,7.2-0.1,10.8,0.9
		c3,0.8,6.2,1.4,9.3,1.7c3.8,0.3,7.5,1.1,11.3,1.9c6.8,1.5,13.8,2.1,20.4-1.9c4.4-2.7,9.4-3.5,14.5-2.1c4.2,1.2,8.5,1.9,12.9,1.5
		c0.3,0,0.6-0.1,0.9,0c8,1.4,15.7-0.9,23.5-2.1c4.4-0.7,8.6-0.6,12.9,0.3c2.3,0.5,4.7,0.7,7,0.6c5.6-0.3,11,0.6,16.5,1.5
		c4.3,0.7,8.6,1.2,12.9,0.1c4.2-1,8.4-2.1,12.7-2.7c4.6-0.7,9.2-0.9,13.9-1.1c2-0.1,3.4-0.6,4.1-2.6c0.7-2.2,2.2-3.7,4.1-4.9
		c0.9-0.6,1.7-1.4,2.7-1.9c1.2-0.6,2.5-1,3.8-1.3c2.3-0.5,4.7-0.7,7-1.3c3.8-0.9,7.6-1.9,11.4-3c1.6-0.5,3.1-1.2,4.7-1.9
		c3-1.4,6-2.4,9.4-2.2c1.5,0.1,3.1-0.2,4.7-0.5c3.9-0.7,7.8-1.3,11.6-2.5c3.9-1.1,7.6-2.8,11.3-4.4c1.6-0.7,2.1-2.3,2.2-4
		c0.1-1.3,0-2.6,0-3.9c-0.2-2.8,0.9-5,3.4-6.4c0.9-0.5,1.7-1,2.6-1.5c1.1-0.6,2.3-1.2,3.3-2c3.6-2.4,4-4.9,1.5-8.5
		c-2.2-3.2-4.4-6.3-6.6-9.5c-0.4-0.6-1-1.3-1.2-2c-1.1-4-4.2-6.3-7.2-8.8c-2.6-2.2-5.4-4.3-7.9-6.7c-1.4-1.3-2.6-2.9-3.9-4.4
		c-0.8-0.9-1.7-1.9-2.7-2.7c-1.9-1.5-3.4-3.3-4.4-5.5c-1.4-3-2.6-6.2-4.4-9c-1.9-3-4.1-5.9-6.6-8.2c-1.9-1.7-3.3-3.7-4.6-5.7
		c-0.9-1.4-0.4-3.6,1-4.8c1.6-1.4,3.4-2.3,5.6-2.4c1.9-0.1,3.7-0.3,5.6-0.5c2.5-0.3,3.3,0.4,3.8,2.9c1.2,6,2.8,11.8,7.7,16.2
		c1.5,1.3,2.7,3.2,3.4,5.1c1.7,4.9,5.2,8.4,8.7,11.9c1.7,1.8,4.3,2.6,6.8,1.2c1.6-0.8,2.9-0.6,4.5,0.2c4.9,2.5,9.9,4.9,14.8,7.3
		c1.1,0.5,2.1,1.2,3,1.9c2.6,1.8,5.4,3.1,8.5,4c2,0.6,4.1,1.7,5.6,3.2c4,3.8,9,5.2,13.9,7c1.9,0.7,3.9,1.3,5.8,2.1
		c1.3,0.5,2.3,1.4,3.8,0.4c1.4-1,1.4-2.2,1.1-3.7c-0.2-0.9-0.2-1.8,0-2.6c0.2-0.7,0.8-1.5,1.4-1.7s1.6,0.3,2,0.8
		c0.7,0.9,1.2,2,1.6,3.1c0.5,1.4,0.8,2.9,1.4,4.2c0.9,2.2,1.6,2.5,3.9,2.2c3.9-0.4,6.5-2.9,8.5-5.8c2.3-3.3,3.6-6.9,2.7-11.2
		c-0.4-1.7,0.1-3.7,0.4-5.5c0.3-1.7,0.2-3.3-0.7-4.8c-0.6-1.1-1-2.3-1.5-3.6c-0.4-1.2-0.3-2.2,0.4-3.4c0.6-0.9,1-2.1,1-3.2
		c0.1-3,0-5.9,0-8.9c0-2.5-0.7-4.7-2.4-6.5c-2.1-2.2-2.5-4.7-2-7.7c0.6-3.5,0.5-7.1-0.5-10.6c-0.4-1.4-0.5-2.9-0.5-4.4
		c0.1-2.8,3.7-4.9,6.3-3.8c1.2,0.5,1.8,2.3,1.5,4.5c-0.2,1.9-0.4,3.9-0.5,5.9c0,0.8,0.1,1.6,0.5,2.3c2.3,4.5,2.5,9.5,3.6,14.3
		c0.5,2.4,1.1,4.8,1.4,7.2c0.2,1.2,0.2,2.6-0.2,3.7c-1.6,4.6-1.4,9.2-0.1,13.7c0.8,2.8,0.9,5.4,0.3,8.2c-0.1,0.6-0.2,1.2-0.3,1.7
		c-0.9,4.6-0.2,6.2,3.9,8.4c1,0.6,2.2,0.9,3.3,1.3c1.4,0.5,1.8,1.3,1.3,2.7c-0.5,1.4-0.6,2.9-1,4.3c-0.3,1.2-0.2,2.2,0.9,2.9
		c1,0.7,2.1,0.9,3.4,0.3c1.8-0.9,3.2-2.2,3.8-4c1-3,3.1-4.4,6-4.9c1.3-0.2,2.6-0.8,4-1.2c1.4-0.4,2.5,0,3.3,1.3
		c0.7,1.2,1.6,2.2,2.4,3.4c1.5,2.1,1.2,4-0.8,5.6c-1.5,1.3-1.6,2.6,0.2,3.4c1.9,0.8,2.8,2.2,3.9,3.7c1.3,1.7,3.2,2.8,5,4
		c0.5,0.3,1.3,0.1,2,0c2.1-0.5,3.9-1.6,4.9-3.6c1.2-2.4,3.2-3.3,5.7-3.5c2.9-0.3,4.6,1.4,4,4.3c-0.6,2.6-0.4,5.1,0.3,7.6
		c1,4,3,4.9,6.8,3.2c0.8-0.3,1.8-0.7,2.5-0.5c3.7,0.8,6.8-1,9.8-2.5c3.2-1.5,6.2-3.5,9.2-5.3c2.6-1.6,4.6-3.9,6.8-6
		c2.7-2.6,5.8-4.8,9-6.6c3.6-2,6.3-4.3,8-8.3c1.6-4,4.2-7.5,7.5-10.5c2.3-2,4.1-4.6,6.2-6.7c1.2-1.2,2.6-2.1,3.9-3
		c0.6-0.5,1.4-0.8,2-1.2c2.7-1.8,5.4-3.5,8.1-5.4c1.9-1.3,3.4-2.9,4.7-4.9c2.3-3.6,5-6.8,8-9.8c3.6-3.5,7.6-6.6,11-10.2
		c3.1-3.3,6.3-6.3,9.5-9.5c2.3-2.3,4.2-4.8,7.2-6.4c2.4-1.2,4.5-3.1,5.8-5.7c0.4-0.9,1.2-1.5,1.8-2.3c1.9-2.4,3.7-4.8,5.6-7.3
		c0.8-1,1.6-2.1,2.5-2.9c2.7-2.5,6.4-1.8,8.3,1.4c1.4,2.4,1.2,5.4-0.6,7.5c-0.8,1-1.9,1.7-2.9,2.5c-4.3,3.3-8.6,6.6-12.9,9.9
		c-0.9,0.7-1.6,1.7-2.2,2.8c-1.2,2.1-2.8,3.8-4.8,5.1c-0.8,0.5-1.6,1.1-2.4,1.7c-3.1,2.4-6.2,4.9-9.2,7.4c-1.3,1.1-2.3,2.4-3.4,3.6
		c-1.7,1.9-3.3,3.9-5.1,5.7c-3.1,3-6.4,5.9-9.6,8.8c-0.2,0.2-0.5,0.4-0.6,0.6c-2.6,5.5-8.1,8.2-11.7,12.8c-1.9,2.3-5.1,3.6-7.8,5.2
		c-1.4,0.8-2.3,1.7-3.1,3c-0.9,1.7-2,3.4-3.2,5c-2.4,3-4.1,6.3-5,10c-0.5,2.2-1.9,3.4-3.7,4.7c-3.8,2.8-7,6.2-7.1,11.3
		c-0.1,3.8,1.8,5,5.3,3.3c1.7-0.8,3.3-1.8,5.1-2.4c1.6-0.5,3.2-0.7,4.9-1c1.4-0.2,2.8-0.2,4.1-0.7c4.4-1.7,8.9-3.1,13-5.7
		c2.8-1.8,5-4,7.2-6.4c1-1,2.3-1.9,3.6-2.3c4.7-1.5,8.9-3.7,13.1-6.1c1.6-0.9,3.4-1.4,5.2-2c2-0.7,4.1-1.4,6.1-2
		c0.9-0.3,1.8-0.7,2.8-0.9c3.4-0.8,6.6-2,9.5-3.9c1.9-1.2,4-2.2,5.9-3.4c5.3-3.1,10.5-6.3,15.7-9.5c0.5-0.3,1-0.6,1.5-1
		c3.1-2.4,6.3-4.7,10.1-6c1.8-0.6,3.4-2,5-3.1c0.5-0.3,1-0.8,1.5-0.9c4.3-1.4,7.7-4.4,11.2-7c2.4-1.8,4.9-3.4,7.2-5.2
		c1.5-1.2,2.9-2.7,4.3-4c1.3-1.2,2.5-2.6,4-3.4c1.8-1.1,3.9-1.8,5.9-2.6c3.8-1.7,7.8,1.9,7.3,5.8c-0.2,1.9-0.8,3.7-2.4,4.9
		c-2.7,2-5.2,4.4-8.3,5.7c-4.6,2-8.4,5.2-12.6,7.7c-0.8,0.5-1.6,0.7-2.4,1.1c-1.2,0.6-2.5,1.2-3.6,1.9c-2.4,1.4-4.7,3-7.1,4.1
		c-4.7,2.3-9.5,4.3-14.3,6.4c-0.9,0.4-1.9,0.8-2.5,1.5c-1.9,2.1-4.3,3.1-6.8,4c-1.8,0.6-3.6,1.7-5.3,2.6c-6.7,3.5-13.5,7-20.2,10.5
		c-2.3,1.2-4.3,2.8-6.5,4.1c-1.3,0.8-2.7,1.6-4.2,2.2c-2.9,1.1-5.8,1.8-8.7,3c-1.4,0.6-2.7,1.6-3.8,2.7s-1.7,2.6-2.7,3.9
		c-2.1,2.9-4.6,5.4-7.8,7.1c-2.3,1.2-3.4,2.9-2.8,4.3c0.8,2.1,2.7,2.4,4.6,2.6c2.8,0.4,5.1-0.6,6.7-2.9c1-1.5,2.4-2.3,4.1-2.7
		c2.9-0.7,5.3-2.1,6.8-4.8c0.3-0.6,0.9-1.2,1.5-1.3c3.9-0.9,7.2-3.7,11.4-4c2.9-0.2,5.8-1.3,8.6-2.1c1-0.3,1.9-0.9,2.8-1.6
		c2.3-1.8,4.9-2.8,7.8-3.2c3.7-0.5,7.3-1.6,10.2-4.3c0.6-0.5,1.3-1,1.9-1.4c3.6-2.2,7.3-4.3,10.9-6.5c1.8-1.1,3.5-2.1,5.8-2
		c2.6,0.2,3.9,1.2,4,3.8c0.1,4.4-0.1,4.5-3.8,5.9s-7.5,2.6-10.3,5.7c-0.2,0.2-0.5,0.4-0.7,0.5c-4.4,1.9-8.8,3.9-13.3,5.7
		c-2.5,1-5,1.9-7.5,2.8c-3.7,1.3-7.4,2.4-11.4,2.9c-4.6,0.6-8.4,3.3-12.4,5.3c-1.1,0.6-2.3,1-3.5,1.5c-1,0.4-2,0.9-2.9,1.4
		c-2,1.2-3.8,2.8-5.9,3.8c-4.5,2.2-8.4,5.2-12.1,8.5c-2.3,2-3.8,5-5.8,7.4c-2.1,2.6-4.1,5.3-6.4,7.7c-1.7,1.9-3.3,3.8-3.9,6.5
		c-0.4,1.9-1.9,3.1-4.1,3.1C632.8,467.7,631,468.1,630.5,470.4z M371.9,467.1c-1.3-0.8-2.2-0.9-3.2,0.2
		C369.9,468.3,370.7,468.3,371.9,467.1z"/>
	<path class="st0" d="M892.2,448.8c-3.7-0.7-5.4,1.2-6.5,3.5c-1.3,2.9-3.5,4.4-6.3,5.8c-3.1,1.4-6.4,2.6-8.7,5.3
		c-1.5,1.7-4.9,2.1-6.8,0.5c-2.9-2.4-5.5-1.8-8.4-0.2c-3.1,1.7-6.4,3.2-9.7,4.4c-2.2,0.7-4.6,0.6-7,0.9c-0.9,0.1-1.8-0.3-2.6,0
		c-2.9,0.9-5.6,0.5-8.4-0.4c-1.9-0.6-3.6-0.2-5.3,1.1c-1.6,1.3-3.3,2.4-5,3.6c-2.1,1.5-4.3,1.3-6.5,0.5c-4.6-1.9-5.2-7.8-1.3-10.8
		c0.7-0.5,1.5-0.9,2.3-1.4c1.7-1.1,2.4-2.7,1.9-4.6c-0.4-1.7-1.3-3.2-2-4.8c-0.4-1-0.9-1.9-1.1-3c-0.2-1.2-0.2-2.4-0.3-3.5
		c-0.1-2.1,0.2-4.1,1.4-5.9c1.9-2.9,3.6-5.9,5.4-8.8c1.3-2.1,3.2-3.4,5.5-4.2c3.5-1.3,7-2.7,10.4-4.3c2.6-1.2,4.8-1.8,7.5,0
		c2,1.4,9.2,0,10.5-1.9c1.2-1.7,2.1-3.6,3.1-5.3c0.2-0.4,0.3-1,0.7-1.3c3.3-2.6,6.7-5.3,10.7-6.7c7.1-2.3,14.2-1.4,21.2,1
		c0.6,0.2,1.2,0.3,1.6,0.6c4,3.3,9.2,4.4,13.5,7.1c1,0.7,2.4,0.9,3.6,1.1c2.5,0.5,4.4,1.7,5.6,3.9c1.2,2.2,2.7,4.1,4.6,5.7
		c1.8,1.5,2.9,3.4,2.9,5.9c0,1.9,0.4,3.7,0.4,5.6c0,2.1-0.8,3.7-2.8,4.8c-2,1.1-4,2.1-6.4,2c-5-0.2-9.7,1.7-14.4,2.8
		C894.4,448.2,893,448.6,892.2,448.8z"/>
	<path class="st0" d="M678,534.7c-1.4-0.1-2.7-0.3-4.1-0.4c-2.6-0.3-5.1-0.4-7.5,0.8c-2,1-3.9,0.3-5.7-0.4c-3-1.2-6.1-1.7-9.2-1.7
		c-3.1,0-5-1.8-6.4-4.1c-2.3-3.7-1.4-7.4,0.6-10.9c0.4-0.6,1.4-1,2.2-1.2s1.8-0.2,2.6,0c3.6,0.8,7,0,10.5-0.7
		c3.2-0.7,6.5-0.6,9.7-0.7c3.7-0.1,7.5,0.4,11.1-0.9c0.8-0.3,2-0.1,2.8,0.3c1.8,0.8,3.6,1.7,5.1,3c2.3,2.1,5.1,2.6,8,2.6
		c3.2,0,6.5-0.1,9.6-1.5c1.3-0.6,2.7-0.6,4,0.1c3.2,1.7,6.7,2.7,10.4,3.1c3.5,0.4,6.9,1.5,9.6,4.2c2.8,2.7,6.3,3.8,10.2,4
		c4,0.2,8,0.8,12,1.3c6.9,0.9,13.9,1.9,20.8,2.7c3.3,0.4,6.7,0.5,10,0.7c3.1,0.2,6.1,0.5,9.2,0.5c2.2,0,4.3-0.2,6.5-0.4
		c1.8-0.2,2.6,0.2,2.8,2.1c0.2,1.4,0.3,2.8,0.2,4.1c-0.2,2.3-1.8,3.4-3.9,2.6c-3.6-1.4-7.3-1.4-11-1.8c-4.4-0.4-8.8-1.3-13.1-2
		c-3.4-0.6-6.8-1.3-10.1-1.9c-0.5-0.1-1-0.1-1.5,0c-3.9,1-7.6-0.2-11.4-0.8c-3.7-0.6-7.4-1.2-11.1-1.8c-2.3-0.3-4.8-0.2-7-0.9
		c-4.8-1.6-9.6-3.5-14.2-5.6c-2-0.9-3.9-1.8-6.1-1.8c-1.8,0-3.6-0.1-5.3-0.5c-4.3-1.1-8.4-0.2-12.6,0.2c-1.4,0.1-2.7,1.2-3.9,1.9
		c-1.8,1.1-3.5,2.2-5.2,3.4C683.9,534.3,681,534.6,678,534.7z"/>
	<path class="st0" d="M594.7,571.9c2-0.1,5.3,2.5,6.2,4.9c0.5,1.2,0.8,2.4,1.1,3.7c0.9,3.4,1.4,7,2.7,10.3c0.9,2.4,2.6,4.6,4.1,6.8
		c1,1.5,2.2,2.7,3.4,4.1c0.7,0.8,1.3,1.9,2.1,2.4c2.3,1.4,3.3,3.6,3.9,6.1c0.4,1.8,1.1,3.3,2.3,4.7c1.3,1.5,2.3,3.2,3.6,4.7
		c0.9,1.1,1.7,2.3,2.9,3c6.4,3.5,10.3,9.7,15.8,14.2c3.5,2.8,6.7,6.1,10,9.2c0.4,0.3,0.7,0.7,1,1.1c1.8,2.3,3.5,4.5,5.2,6.8
		c1,1.3,0.7,2.8-0.9,4c-1.3,1.1-2.6,1-3.6-0.2c-0.3-0.4-0.6-0.8-0.8-1.2c-2.1-3.9-5.4-6.5-9.1-8.7c-0.9-0.5-1.9-1.2-2.4-2
		c-1.5-2.5-3.7-4.4-6-6c-2.1-1.5-3.7-3.2-5.2-5.2c-2-2.7-4.2-5.3-6.1-8c-1.8-2.6-3.2-5.4-5.6-7.6c-2-1.8-3.8-3.7-5.6-5.7
		c-1.6-1.7-3-3.7-4.5-5.4c-1.2-1.3-2.4-2.6-3.7-3.8c-1.8-1.7-3.3-3.5-4.7-5.6c-2.1-3.2-4.7-6-7.1-9c-0.5-0.7-1.2-1.3-1.4-2.1
		c-1.1-4.2-1.2-8.4-0.1-12.6C592.3,572.8,593.3,571.9,594.7,571.9z"/>
	<path class="st0" d="M714.1,624.6c2.8-0.4,5,0.9,6.4,3.7c1.5,3.2,3.7,5.7,6.6,7.7c1.4,1,2.4,2.5,3.7,3.8c1,1,2.1,2.1,3.3,2.9
		c2.6,1.9,4.7,4.1,6.7,6.6c3.4,4.2,6.8,8.4,12.3,10.2c2.5,0.8,4.4,2.2,4.8,5.1c0.2,1.1,0.7,2.5-0.4,2.9c-1.1,0.5-2.9,0.6-3.8-0.1
		c-1.9-1.3-3.6-3.1-5.1-4.9c-2.1-2.7-4.4-5.1-7.6-6.4c-0.6-0.3-1.2-0.6-1.8-1c-1.9-1.4-3.9-2.6-6.3-2.9c-1.3-0.2-2.6-0.9-3.8-1.5
		c-1.8-0.9-3.5-1.9-5.2-2.9c-5.2-3-10.9-5.1-16.4-7.3c-5.7-2.3-5.5-7.8-3-11.1C706.5,626.7,709.4,624.3,714.1,624.6z"/>
	<path class="st0" d="M618.4,722.6c-2.3-2.6-4.4-4.7-6.1-7.1c-1.2-1.7-1.9-3.7-2.5-5.6c-0.9-2.9-2.3-5.4-4.6-7.4
		c-1.6-1.3-2.1-3.3-2.5-5.2c-0.7-3.5,0.4-6.7,2.6-9.4c1.4-1.8,3.5-2.8,5.9-2.9c3.4-0.1,6.7,0.1,9.2,2.9c1.4,1.5,2.3,3.1,2.5,5.2
		c0.1,1.1,0.3,2.2,0.3,3.2c0.1,3.9,1,7.6,2.7,11.1c1.4,2.9,1.1,5.7-1.4,8.1c-1.2,1.2-2.2,2.8-3.4,4.1
		C620.4,720.7,619.4,721.6,618.4,722.6z"/>
	<path class="st0" d="M662.4,498.9c1.3,0,1.8-0.1,2.2,0c3.4,1.1,6.7,1,10.2,0.7c3.2-0.3,6.5,0.4,9.7,0.6c1.7,0.1,3.4,0.1,5-0.2
		c3.6-0.6,7.2-0.8,10.8,0.3c1.1,0.3,2.6,0.3,3.7-0.1c4.2-1.3,8.6-1.2,12.9-1.3c2.1,0,3.7,1.5,3.8,3.3c0.1,1.9-1.5,3.5-3.6,3.5
		c-5.9-0.1-11.9,0.7-17.6-1.5c-1.4-0.5-2.5-0.1-3.6,0.7c-3.4,2.4-7.1,3.1-11.1,2.6c-1.6-0.2-3.2-0.3-4.7,0c-3.1,0.8-6.1-0.1-9.1-0.5
		c-2.7-0.3-4.7-1.9-6.1-4.2C664.2,501.7,663.5,500.6,662.4,498.9z"/>
	<path class="st0" d="M926.2,407.8c-1.6-0.1-3.1-0.3-4.7-0.5c-4.6-0.6-7.1-7.2-5.2-10.7c1.1-2,2.5-3.6,4.7-4.7
		c4.1-2,8.3-2.1,12.7-1.6c1.7,0.2,3.2,0.9,4.3,2.2c1,1.2,2.3,2.2,3.3,3.4c1.9,2.1,1.7,3.9-0.3,5.9
		C937,406.1,932.1,408.1,926.2,407.8z"/>
	<path class="st0" d="M419,678.3c0.6,5.6-5.2,9.6-9.5,9.7c-3.6,0.1-8.7-4.5-9.1-7.4c-0.3-2.4-0.6-4.5,1.1-6.6c1.7-2,3.6-3.4,6.1-3.7
		c1.5-0.2,3.1-0.4,4.6-0.2C417,671,418.9,673.5,419,678.3z"/>
	<path class="st0" d="M963.2,404.9c3.8,0.3,7,1.6,10,3.8c1.9,1.4,2.3,3.4,2,5.5c-0.1,0.8-1.1,2-2,2.3c-4.1,1.5-8.3,2.5-12.6,1.3
		c-3.6-1-6.1-4.2-5.8-7.5c0.1-1.6,0.8-2.9,2.3-3.5C959,405.9,961.1,405.5,963.2,404.9z"/>
	<path class="st0" d="M860.1,382.8c-2-0.4-4.7-0.3-6.3-2.9c-0.4-0.6-0.9-1.3-0.8-1.9c0.4-2.7,0.2-5.5,1.5-8c0.7-1.3,1.9-2.1,3.4-2
		c2.2,0.1,4.4,0,6.4,0.6c4.5,1.3,5.6,4,5.5,8.3c0,1.1-0.6,2-1.5,2.7C865.3,381.8,863.2,382.8,860.1,382.8z"/>
	<path class="st0" d="M562.6,402.8c0.2-3.8,2.3-6.8,3.7-10c0.4-0.9,1-1.7,1.3-2.6c0.6-1.6,1.4-2.8,3.3-2.9c2-0.1,4.4,1.2,5.1,2.9
		c1.1,2.5,0.5,4.9-1.1,6.9c-2.2,2.9-3.6,6.1-5,9.3c-0.5,1.2-1,2.4-1.9,3.3c-1.2,1.5-3.1,1.3-3.8-0.5
		C563.5,407.2,563.1,405,562.6,402.8z"/>
	<path class="st0" d="M530.4,263.4c0-2,0.1-3.4,0-4.7c-0.1-1.6,0.7-2.7,2.1-3.3c1.3-0.6,2.5-0.2,3.6,0.7c2,1.7,3.3,3.6,3.6,6.5
		c0.3,3.6-0.6,7-0.9,10.5c0,0.1,0,0.2-0.1,0.3c-0.6,1.5-1,3.3-2.8,3.4c-1.7,0.1-2.3-1.6-2.9-3c-0.2-0.4-0.3-1-0.5-1.4
		C530.5,269.4,530,266.2,530.4,263.4z"/>
	<path class="st0" d="M440.9,309.5c0,3-1.1,3.6-3.5,2.2c-0.7-0.5-1.5-1-2.1-1.7c-1.9-2.1-3.8-4.3-5.6-6.5c-0.7-0.8-1.3-1.8-1.7-2.8
		c-0.7-1.9-0.1-3.6,1.5-4.7s3.4-1,4.9,0.2c0.5,0.4,0.9,0.8,1.2,1.3c2.4,3.2,4,6.8,5,10.6C440.9,308.8,440.9,309.3,440.9,309.5z"/>
	<path class="st0" d="M1005.6,398.5c-1.3-0.3-2.7-0.5-4-0.9c-1.7-0.6-2.4-2-2.7-3.6c-0.2-1.6,0.7-2.8,2-3.7c3.2-2.1,9.4-1.6,12.2,1
		c1.8,1.7,1.4,4.3-0.7,5.4C1010.1,397.8,1008.2,398.3,1005.6,398.5z"/>
	<path class="st0" d="M299.1,443.4c-2.9-0.2-5.3-1.2-7.4-2.9c-0.9-0.8-1.9-1.7-1.3-3c0.6-1.5,1.3-3,3.1-3.2c1-0.1,2.2-0.1,3.2,0.3
		c1.9,0.8,3.7,1.8,5.5,2.8c1.3,0.7,2.1,1.8,1.9,3.4c-0.2,1.5-1.5,1.9-2.7,2.3C300.5,443.3,299.7,443.3,299.1,443.4z"/>
	<path class="st0" d="M485.7,644.5c0.5,1.5,0.9,2.4,1,3.3c0.1,2.3,0,4.5,0,6.8c-0.1,2.3-1.5,4-3,5.6c-0.9,1-2.8,1.1-3.8,0.5
		c-1.2-0.8-1.1-2-1-3.2c0.2-1.4,0.3-2.7,0.6-4.1c0.1-0.8,0.3-1.6,0.7-2.2C481.7,649.1,483.4,647.2,485.7,644.5z"/>
	<path class="st0" d="M562.4,614.7c0-3,1.4-3.9,3.6-2.8c2.3,1.2,3.8,3.1,4.2,5.8c0.2,1.3,0.3,2.5,0.5,3.8c0.2,1.8-0.6,3.2-2.2,3.7
		c-1.3,0.4-2.4-0.1-3.4-1.6c-0.1-0.2-0.2-0.3-0.3-0.5C563.9,620.1,563,617,562.4,614.7z"/>
	<path class="st0" d="M503.6,629c-3.4,0-4.8-1.5-4.9-5.2c0-3.4,1.2-4.6,4.6-4.7c3.2,0,5.3,2,5.2,5.1
		C508.5,627.8,507.2,629,503.6,629z"/>
	<path class="st0" d="M851,490.5c0.4,1.4-0.2,2.2-1.5,2.6c-3.8,1.4-7.8,1.9-11.8,1.7c-0.6,0-1.2-0.3-1.6-0.5c-1-0.6-0.9-1.4-0.3-2.2
		c0.2-0.2,0.4-0.4,0.7-0.5C841.2,489.9,845.9,488.1,851,490.5z"/>
	<path class="st0" d="M144.4,519.8c1.7-0.4,3.3-1.1,4.9-1.2c2.4-0.1,4.9,0.1,7.3,0.4c1,0.1,2,0.5,2,1.7c0,1.4-1.2,2.3-2.3,2.3
		c-2.7,0.1-5.5,0.1-8.2-0.3C146.8,522.6,145,522.4,144.4,519.8z"/>
	<path class="st0" d="M301.5,406.9c3.1,0.6,5.8,2.5,7.8,5.3c1,1.4-0.2,3.1-1.8,2.6c-2.5-0.8-5-1.9-7.3-3.2c-0.7-0.4-1.1-1.8-1.2-2.8
		C298.9,407.3,299.6,406.9,301.5,406.9z"/>
	<path class="st0" d="M17,410.8c2.8-1,16.7-0.9,20.8,0c-0.2,1.7-1.1,2.4-2.7,2.3c-3-0.2-6.1-0.5-9.1-0.7c-2.1-0.2-4.3-0.3-6.4-0.6
		C18.9,411.6,18.2,411.2,17,410.8z"/>
	<path class="st0" d="M343.2,434.3c1.5,0.2,2.6,0.4,3.7,0.5c2.9,0.4,3.9,1.4,4.3,4.2c0.2,1.5-0.6,2.4-2,1.9
		c-2.3-0.9-4.6-2.2-6.7-3.5c-0.6-0.4-1.1-1.6-1-2.2C341.6,434.6,342.8,434.4,343.2,434.3z"/>
	<path class="st0" d="M628.7,224.9c0.3-3.8,2-6.4,4.1-8.8c0.8-0.9,1.9-0.5,2.1,0.8c0.1,0.6,0.1,1.2-0.1,1.8
		c-0.6,2.1-1.3,4.1-2.1,6.1c-0.1,0.4-0.3,0.8-0.6,1c-0.7,0.4-1.6,1-2.3,0.8C629.2,226.4,628.9,225.3,628.7,224.9z"/>
	<path class="st0" d="M777.7,738.3c-1-0.4-1.9-0.6-2.5-1.1c-1.3-1.1-2.5-2.3-3.5-3.6c-0.4-0.6-0.5-1.7-0.3-2.4
		c0.1-0.4,1.5-0.7,2-0.4c2.1,1.2,4.2,2.5,6.1,3.9c0.5,0.4,0.5,1.8,0.2,2.4C779.5,737.7,778.4,737.9,777.7,738.3z"/>
	<path class="st0" d="M920.6,351.4c-2.3,0-3.7-1.3-3.6-3.3c0.1-2.1,1.5-3.3,3.7-3.3c2.1,0,3.9,2,3.8,4
		C924.4,350.4,922.9,351.4,920.6,351.4z"/>
	<path class="st0" d="M198,392.8c-1,0.5-1.8,1.3-2.5,1.2c-2.4-0.3-4.8-0.8-7.1-1.6c-1.1-0.4-1-1.7,0.1-2.2
		C190.7,389,195.8,390.2,198,392.8z"/>
	<path class="st0" d="M920.4,364c0.1,2.1-1.2,3.9-2.7,4c-1.6,0.1-3-1.3-3.1-2.9c-0.1-2,1.2-3.6,3-3.7S920.4,362.2,920.4,364z"/>
	<path class="st0" d="M480,688.5c0,2.4,0,4.3,0,6.2c0,0.4-0.3,0.9-0.6,1.3c-1,1.3-2.3,1.1-2.9-0.4C475.4,693,476.6,690.3,480,688.5z
		"/>
	<path class="st0" d="M946.6,435.5c3.4-1.5,4.9-1.1,5.7,1.2C949.6,437.9,948.2,437.7,946.6,435.5z"/>
	<path class="st0" d="M562.8,244.9c0.4,3.5,0.4,7-2,10.5C560.3,251.5,562.8,248.4,562.8,244.9z"/>
	<path class="st0" d="M269.1,764.6c-1,2.7-2.6,3.8-5.3,4.3c0.1-0.8,0-1.5,0.3-1.9C265.2,765.6,266.7,764.8,269.1,764.6z"/>
	<path class="st0" d="M96.8,526.1c-2.1,0.6-3.5,1.8-5.4,0.8C92.1,525.9,92.1,525.9,96.8,526.1z"/>
	<path class="st0" d="M371.9,467.1c-1.2,1.2-2.1,1.1-3.2,0.2C369.8,466.2,370.6,466.3,371.9,467.1z"/>
</g>
</svg>
