<?xml version="1.0" encoding="utf-8"?>
<!-- Generator: Adobe Illustrator 22.1.0, SVG Export Plug-In . SVG Version: 6.00 Build 0)  -->
<svg version="1.1" id="Layer_1" xmlns="http://www.w3.org/2000/svg" xmlns:xlink="http://www.w3.org/1999/xlink" x="0px" y="0px"
	 viewBox="0 0 1024 1024" style="enable-background:new 0 0 1024 1024;" xml:space="preserve">
<style type="text/css">
	.st0{fill:#27AAE1;}
</style>
<g>
	<path class="st0" d="M185.6,704.9c0.6-10.3,21.6-11.5,11.7-26.5c-3.9-5.9-9.9-17.7-13.9-14c-10.1,9.4-27,12-31.1,26.6
		c-2.9,10.4-7.6,9.8-15.5,6.9c2.4-14,17.3-17.7,23-28.6c1-5.8,0.5-11.9,4.5-16.9c12-7.1,14.5-21.7,24-30.9c3.1-3,3.5-9.2-0.3-12.2
		c-5.9-4.8-6.1,3.5-9.3,5.3c-18.6,10.2-25.1,5.1-33-25.7c6.6-3.2-0.3-10,3.7-13.9c6.7-8.6,11.2,1.4,17.3,2.3
		c1.7-18.5-13.9-24.3-23.8-34.6c2.3-6,6.9-2.9,10.7-1.6c5.6,1.8,8.1-1.8,10.5-5.6c2.5-3.9,0.7-6.9-2.1-9.8
		c-4.6-4.7-7.8-1.2-11.4,1.5c-3.8,2.9-8.7,5-11.5,0.1c-2.5-4.3,1.5-8.6,5-11.2c9.3-7.1,17.4-16,30-18.3c7.8-1.4,15.4-3.9,20.5-11.9
		c8.4-13.2,10.5-23.3-8.7-26.8c-4.9-0.9-12.1,0-10.7-7.5c1.1-5.8,7.3-6.6,12.9-5.6c11.4,2,20.1,0.5,22.5-13.7
		c0.7-4.2,6.5-10.2,11.7-3.8c9.1,11.2,20.9,7,26.8,0.8c8-8.5-9.8-10.5-9.1-21.1c13.3-3.9,32.5-3.3,30.1-29.2
		c6.4,8.4,3.2,18.7,14.8,17.7c9.2-0.8,14.4-3.5,18.2-12.7c9-21.7,28.5-35.4,44-27.8c13.7,6.7,24.2,18.8,41.5,11.3
		c1.5-0.7,6.7,3.6,8.1,6.6c9.7,19.9,17,14,23.7-2.5c2.1,1.6,5.1,2.8,5.2,4c0.6,25.7,13.7,23.6,30.5,14.1c3.2-1.8,7-2.4,10.5-3.5
		c2.4,1.8,2.6,3.8,0.7,6c1.9,5.8-9.9,13.1,3.4,18.1c12.4,4.7,23.7,16.3,33.1-4.3c14.9,30.7,17.8,31.8,39.6,11.5
		c-7.4,15.1,10.4,25-2.9,38.1c-5.1,5.1,3.1,7.6,8.7,7.5c12.9-0.3,22.2,1.9,11.7,17.4c-2.2,3.3-4.4,6.6,0.7,8.9c4,1.9,9-0.6,9.2-3.7
		c1.3-20.3,19.2-19.1,32.5-27.2c0.2,8.9-12.1,15.7-5.1,20.4c11.1,7.5,22.1-2.5,37.6-8.9c-7.8,10.9-18.4,14.3-14.9,27.4
		c1.2,4.5-15.4,11.4-27,11.6c-8.4,0.2-19.7,7.2-12.9,14.7c6.7,7.4-3.1,28.4,18.3,23.3c19.2-4.6,40.1-3.5,57.3-19.5
		c-7.7-3.9-22.5-2.4-18.5-17c3.3-12.1,14.4-15.1,24.9-14.9c12,0.2,23.9,3.1,37,5c-7.2,8.1-20.6,8.3-16.5,25.2
		c1.2,4.8-22,19.3-37.3,22.4c-9.8,2-17.7,7.3-26.9,10.2c-9.5,3-13.1,14.7-10.2,20.4c4.5,8.7,12.4,4.1,20.2-1.5
		c24.6-17.7,53.9-23.2,89.1-31c-24.5,19.6-49.3,22.7-70.7,33c-5.8,2.8-15.8,3.7-2,11c2.8,1.5,1.7,10.9-6.3,13
		c-11.5,3.1-18.1,12.5-25.1,21.2l0.4-0.4c-11,6-22.9-2.1-37.1,2.1c25,13.6,47.4,25.6,73.2,29.4c2.6,10.8-15.2,12-10.7,25.2
		c8.3-5.1,3.5-19,14.7-20.4c4.4-0.1,8.9-0.4,13.3-0.1c6.8,0.5,13.7,2.1,16.8,8.8c3.8,8.3-5.6,10.6-9.9,17.1
		c23,1.8,43.9,9.5,66.3,9.5c-28.5,15.6-58.1,8.6-87.4,9.1c-16.9,0.3-25.4-16-42.3-15.9c-7.4,0-15.5,2.5-23.3,0
		c-9.1-2.9-12.6,5.9-14.1,10.8c-2.5,8.2,10.2,0.6,11,7.8c-7.6,13.3-23.4,12.6-34.7,19.7c-1.1,1.5-2.3,1.6-3.6,0.4
		c-6-0.7-10.5,1.6-11.4,7.8c-0.7,5.1,4,4.8,7.4,6.2c14.2,5.7,21.5,27.6,42.2,18c1.3,3.3,4.6,8.1,3.5,9.5c-3.3,4.2-2.3,10-9.5,13.2
		c-27.6,12-48,8.8-73.7-14.2c-17.1-15.3-32-17.2-43.5-2c-5.8,7.6-2.8,19.4,6.2,27.5c9.2,8.3,20.3,16.2,15.9,31.6
		c-1,2.5-2,2.4-3.2,0.2c-10.2-9.5-13.8-24.6-27-31.6c-26-3-27.9-1-22.7,23.1c-1.5,7.4-3,14.8-4.4,22.2c0,0,0.2-0.2,0.2-0.2
		c-9.6,0.2-10.1-10.3-15.6-15c-23-19.3-37,3.6-54.5,8.3c-3,0.8-3.9,9.5-9.3,4c-2.6-2.7-6.1-7.8-1.9-12c8.2-8.4,0-11.5-4.8-15
		c-2.8-2-7.7-3.1-10.2,0.3c-4.3,6.1,3.4,8.6,4.9,13.1c2.1,6,3.9,12.2,6.3,19.7c-18.2,2.7-27.5-11.2-24.8-21
		c4.4-16.2-9.6-26-8.6-40.9c-3.9,4.6-7.8,9.1-11.7,13.7c-11.6,1-2.9-10.1-7.9-13.1c-15.1-13.6-18.1-13.1-48,8.2
		c15-21.9-13-35.4-7.4-56.3c-13,11.2-34.6,8.4-39.2,29.2c-0.9,4.2-4.5,4.5-8.8,2.8c-11.8-4.7-17.6,3.2-23,11.6
		c-2.6,5.4-7.8,6.8-13.1,8c-2.4,2.6-5.3,5-7,8c-2.8,4.9-4.7,12.3-11.7,9.6c-7.6-2.9-4.9-10.5-3.4-16.6l-0.1,0.2
		c16.9-7.4,28.6-21.4,42.6-32.6c9.5-7.7-1.9-14.8,2.2-21.4c0.7-0.7,1.5-1.4,2.2-2.1c6.7-1.8,14.7-2.5,10.5-13.1
		C185.8,712.7,183.3,708.7,185.6,704.9z"/>
	<path class="st0" d="M721.9,641.4c91.4-1.8,182.8-1,273.9,8.6C904.6,644.1,813.1,648.8,721.9,641.4z"/>
	<path class="st0" d="M753.4,365.2c-6.8,15-22.5,18.9-34.8,26.1c-32.1,18.8-60.6,43.6-96.2,56.8c43.1-28.6,80.2-66.6,131.4-82.6
		L753.4,365.2z"/>
	<path class="st0" d="M785,343.2c31.3-26.8,65.6-49.2,102.6-67.4l0.3,0.3c-4.7,11.1-16.1,14.4-24.9,20.6
		c-19.1,13.4-38.9,26-58.2,39.1c-6.1,4.2-11.9,8.8-20,7.1L785,343.2z"/>
	<path class="st0" d="M757.5,526.1c6.7,9,13.4,1.8,19.7-0.5c17.8-6.3,35.3-13.3,55.4-11.2c-31.3,10.2-62.6,20.5-92.8,30.4
		c-9.5-10,18.6-6.7,3.8-17.6C747.8,522.3,752.5,522.3,757.5,526.1z"/>
	<path class="st0" d="M746.4,584.1c-11.7,8.8-18.2,14.5-25.5,19c-5.8,3.6-12.4,4.5-18.5-0.4c-3.2-2.7-4-6.1-2.2-9.8
		c2.9-5.7,8.1-8.5,14.3-8.7C723.4,583.8,732.1,584.1,746.4,584.1z"/>
	<path class="st0" d="M257.2,307.4c16.6,18.6,14.2,40.9,13.8,62.8c-6.2-20.7-14.1-41-13.6-63L257.2,307.4z"/>
	<path class="st0" d="M185.6,704.9c1.4,3.4,2.7,6.7,4.1,10.1c-3.3,8.2-10.1,12.9-17.4,17.1c0,0,0.2-0.4,0.2-0.4
		c-11.2,6.3-15.2,21.1-31.2,22.8C156,738,170.8,721.5,185.6,704.9z"/>
	<path class="st0" d="M611.7,812.6c-5.4,2-7.8,3.8-9,3.2c-9.9-4.6-24.8,1.6-29.6-13.5c-0.4-1.4,1.6-5.2,2.7-5.3
		C589.6,796.2,599.2,803.9,611.7,812.6z"/>
	<path class="st0" d="M677.9,107.3c-9.2,21.2-21.2,40.1-41.5,52.3C650.2,142.2,664.1,124.7,677.9,107.3z"/>
	<path class="st0" d="M809.4,702.3c-18.8,2.2-37.7,7.4-57.1-4C772.9,692,791,698.4,809.4,702.3z"/>
	<path class="st0" d="M289.3,781.1c2.6,4.4,5.2,8.7,7.9,13.1c-5.7,14.4-7.5,31.3-25.9,42C274.2,814.7,294.4,801.8,289.3,781.1z"/>
	<path class="st0" d="M547.4,727.9c1.2-0.5,2.4-0.6,3.6-0.4c17.5-3.7,32,5.5,47.7,10.8C578.7,748.5,563.4,736.8,547.4,727.9z"/>
	<path class="st0" d="M164.3,652.6c3.5,7,0.7,12.2-4.5,16.9c-9.1-8.1-14.5,1.9-20.7,4.9c-6.4,3.2-11.4,9.3-19.4,9.3
		c-0.6-0.6-1.2-1.3-1.8-1.9C132.6,670.9,145.9,657.7,164.3,652.6z"/>
	<path class="st0" d="M936.7,627.1c-19.3,1.7-38.7,3.5-58,5.2C897.3,620.5,917.2,626.3,936.7,627.1z"/>
	<path class="st0" d="M789.4,785.5c-17.2,1.5-33.9,0.1-49.2-9.1c-1.5-0.7-2.1-1.5-1.6-2.3c0.4-0.9,0.9-1.3,1.3-1.3
		c16.3,4.9,35.1,0.4,49.4,12.9L789.4,785.5z"/>
	<path class="st0" d="M650.7,754.3c16.3-1.2,31.5,2,45,11.9C680.3,763.9,663.4,767.3,650.7,754.3L650.7,754.3z"/>
	<path class="st0" d="M811.7,790.1c21-2.5,40,6.3,59.5,11.6c-20.6,0.7-40.2-4.5-59.3-11.8L811.7,790.1z"/>
	<path class="st0" d="M383.9,927.5c1.8-6.3,7.3-8.7,12.8-9.9c5.1-1.1,8,2.5,7.9,7.5c-0.1,6.6-5.1,8.2-10.5,8.3
		C389.7,933.6,385.3,933.2,383.9,927.5z"/>
	<path class="st0" d="M119.7,683.7c-6.8,11.3-20.3,12.4-30.4,18.9c4.6-13.5,15.5-18.6,28.6-20.8C118.4,682.4,119,683.1,119.7,683.7z
		"/>
	<path class="st0" d="M149.9,784.7c2.8-5.1,7.1-8,13.1-8c5.3,2.8,12.5,6.3,7.1,12.9C161.4,800.1,156.6,786.7,149.9,784.7z"/>
	<path class="st0" d="M784.7,342.9c-6.4,13.1-19.4,16.9-31.3,22.3c0,0,0.4,0.3,0.4,0.3c3.8-16.6,18.3-18.4,31.3-22.4
		C785,343.2,784.7,342.9,784.7,342.9z"/>
	<path class="st0" d="M774.3,493.4c-10.6,1.8-21.3,3.7-38,6.6c14.4-13.4,26.5-8.5,36.6-12.7C773.4,489.3,773.8,491.4,774.3,493.4z"
		/>
	<path class="st0" d="M744.8,556.3c11-6.4,22.8-11.5,40.8-12.4C770.7,554.7,757.8,555.1,744.8,556.3z"/>
	<path class="st0" d="M30.8,858.1c1.2-5.2,4.8-7.4,9.5-7.2c4.9,0.3,7.9,3.2,7.4,8.4c-0.5,5.2-3.8,7.5-8.8,6.8
		C34.1,865.5,31,863,30.8,858.1z"/>
	<path class="st0" d="M739.9,772.8c0.1,1.2,0.2,2.4,0.3,3.6c-11.3,0.5-22.7,1.5-33-7.3C719.6,764.3,729.5,770.2,739.9,772.8z"/>
	<path class="st0" d="M667.4,639.9c-2.2,4.2-5.8,6.8-10.5,6.8c-4.2,0-7.1-2.5-5.8-7c1.6-5.3,6.2-5.4,10.8-5.2
		C665.3,634.6,667,636.5,667.4,639.9z"/>
	<path class="st0" d="M257.4,307.2c-7.9-6.2-10.2-14.8-12.4-28.5c12.6,9.6,13.2,18.8,12.1,28.8C257.2,307.4,257.4,307.2,257.4,307.2
		z"/>
	<path class="st0" d="M887.5,275.8c5-10,13.8-14.2,28.7-18.7c-10.2,11.6-17.4,18.1-28.4,19C887.9,276.1,887.5,275.8,887.5,275.8z"/>
	<path class="st0" d="M956.5,231.9c-10.1,7.7-17.1,13-27.2,20.7C937.1,237.1,937.1,237.1,956.5,231.9z"/>
	<path class="st0" d="M88.4,650.1c4.9,0.9,4.2,5,3.7,8.3c-0.4,3.1-2.8,5.7-5.9,5.1c-3.6-0.6-7-3-6.2-7.5
		C80.7,652,84.3,650.7,88.4,650.1z"/>
	<path class="st0" d="M232.6,770.7c-7.6,1.3-14.4,3.5-17.7-4.9c-0.5-1.2,1.6-4.7,3.1-5.1C226.5,758.3,227.6,766.4,232.6,770.7z"/>
	<path class="st0" d="M921.7,666c-7.6,4.9-13,4.1-20.6-0.7C909.4,658.6,914.8,660.3,921.7,666z"/>
	<path class="st0" d="M713.7,60.4c-2,13.4-8.1,19.8-19.7,29.5C699.5,76.3,703.6,68.7,713.7,60.4z"/>
	<path class="st0" d="M355.8,303c5.5,7.4,3.4,12.3-1.5,16.3c-1,0.8-4.9,0.1-5.3-0.9C345.6,310.6,351.3,307.6,355.8,303z"/>
	<path class="st0" d="M467.6,392.4c-0.2-2-0.4-4-0.7-6c-2-4.6-10.4-7.9-3-14.2c1.3-1.1,5.3-1.5,5.5-0.9
		C473.1,378.6,474.5,385.9,467.6,392.4z"/>
	<path class="st0" d="M923.9,407.2c-6.5,5.6-13.1,11.5-27,10.9C907.3,411.1,914.3,406.7,923.9,407.2z"/>
	<path class="st0" d="M60.3,846.7c-14-1-19.9-2.7-24.6-10C45.2,833,50.1,838.1,60.3,846.7z"/>
	<path class="st0" d="M427.1,839.3c8.5,1,11.2,6,8.7,13.6c-1.9,5.6-6.3,1.7-8.8,0.6c-11.9-4.8,5.5-9.4,0.4-14.4
		C427.3,839.1,427.1,839.3,427.1,839.3z"/>
	<path class="st0" d="M59.2,586c-4.5-0.1-7.2-2.3-7.8-6.3c-0.5-3.8,0.3-7.6,5.2-7.8c4.1-0.2,6.9,2.5,7.8,6.3
		C65.3,582.3,62.9,584.9,59.2,586z"/>
	<path class="st0" d="M200.9,369.5c-3-0.3-6.1-1.3-5.3-4.9c0.9-4.4,3.8-7.9,8.9-7.3c3.6,0.4,4.2,3.7,3.9,6.4
		C208,367.9,205.2,369.9,200.9,369.5z"/>
	<path class="st0" d="M83.4,487.7c9.6-0.6,13.3,3,17.4,10.4C91.3,498.9,87.3,495.6,83.4,487.7z"/>
	<path class="st0" d="M60.9,756.3c-1.2,5.2-3.5,6.7-6.6,5.9c-3.7-0.9-6.4-3.4-6.1-7.5c0.3-4.9,4.1-5.2,7.7-4.5
		C60,751.1,61.3,754.1,60.9,756.3z"/>
	<path class="st0" d="M757.5,526.1c-4.7,0.4-9.3,0.8-14,1.2c-1.9-14.1,9-10.5,15-9.2C764.4,519.4,758.8,523.3,757.5,526.1z"/>
	<path class="st0" d="M45.6,407c-3.4,0-5.7-1.6-6.2-4.9c-0.5-3.5,2-5.7,5.1-5.6c1.7,0,4.2,1.9,4.8,3.6
		C50.7,403.3,48.7,405.7,45.6,407z"/>
	<path class="st0" d="M81.1,291.6c-4.5-4.7-7.3-9.5-6-15.7c0.8-0.6,1.6-1.5,1.8-1.4C83.7,278.7,84.8,284.3,81.1,291.6z"/>
	<path class="st0" d="M753.9,239.1c1.6-9.8,8.6-8.3,13.6-10.2C764.8,233.8,763.7,240.5,753.9,239.1z"/>
	<path class="st0" d="M717.6,156c-1.7-3-3.4-4.6-3.4-6.2c0.2-4,3-6.5,6.8-7.2c3.5-0.6,5.9,1.7,4.4,4.9
		C723.9,150.4,720.8,152.5,717.6,156z"/>
	<path class="st0" d="M860.5,963.6c-5.6-1.8-11.2-3.4-14.5-8.9c1-0.8,2.4-2.4,2.8-2.2c4.4,2.3,8.7,4.9,13,7.6
		C862,960.2,861,962.2,860.5,963.6z"/>
	<path class="st0" d="M778.1,684.6c-4.9,4.7-9.9,4.4-14.6,0.2c-0.5-0.5,0.9-4.9,2.1-5.2C770.6,678.1,775.6,678.1,778.1,684.6z"/>
	<path class="st0" d="M509.1,340.9c-1.6-7.7,5.4-9,7.9-13.3C523,331.3,521.4,333.6,509.1,340.9z"/>
	<path class="st0" d="M510.9,830.7c-10.9-2.9-12.4-8.7-11.7-22.9C504.6,818.5,507.2,823.6,510.9,830.7z"/>
	<path class="st0" d="M57.9,705.8c4.5,0.4,6.6,2.1,6.8,5.4c0.1,2.9-0.3,5.9-4,6.5c-4.4,0.6-7.1-2.2-7-6
		C53.8,709.4,56.7,707.3,57.9,705.8z"/>
	<path class="st0" d="M445,809.9c-3.3-8.9-0.7-14.3,9.2-15.4C455.3,802.1,453.8,808.2,445,809.9z"/>
	<path class="st0" d="M486.7,332.5c-2.7-9.5,3-13,4.7-19.8C496.2,321.8,491.4,326.4,486.7,332.5z"/>
	<path class="st0" d="M1002.3,804.4c0.5,3.4-3.2,3.6-5.7,4c-3.1,0.5-5.8-0.8-6.2-4.4c-0.5-3.8,1.9-5.4,5.2-5.3
		C998.6,798.7,1001.2,800,1002.3,804.4z"/>
	<path class="st0" d="M543.3,812.3c-2.3,3-2.8,8.9-8.5,6.7c-1.8-0.7-4-5.2-3.3-6.7c3.8-8,7.9,0.6,12,0.3L543.3,812.3z"/>
	<path class="st0" d="M614.8,624.8c3.3,0.6,9.4,0.9,9.5,2c0.5,4.3-3.3,6.3-7.1,5.7c-6.2-0.9-2.5-5-2-8
		C615.2,624.5,614.8,624.8,614.8,624.8z"/>
	<path class="st0" d="M481.2,825.6c1.1-0.1,2.1-0.2,3.2-0.2c1.6,5.7,11.2,4.6,10.8,13C487.3,837.2,481.1,835.1,481.2,825.6z"/>
	<path class="st0" d="M553.8,163.1c4.6,6.7,0.1,10.8-2.9,15.5C543.1,171.5,554.1,168.5,553.8,163.1z"/>
	<path class="st0" d="M650.7,754.3c-7.8-0.8-15.8,2.5-24.9-2.4C635.5,748.9,643.4,747.5,650.7,754.3
		C650.7,754.3,650.7,754.3,650.7,754.3z"/>
	<path class="st0" d="M123.4,872.2c5.1,4.2,7.7,5.3,7.8,6.6c0.4,4.4-2.5,6.1-6.6,5.3c-2-0.4-4-1.4-5.9-2.1
		C120.2,878.8,121.7,875.6,123.4,872.2z"/>
	<path class="st0" d="M858.7,884.6c-1.1,0.9-2.3,2.7-3.9,3c-3,0.7-5.8-0.6-6-4c-0.1-1.2,2-3.4,3.5-3.7
		C855.1,879.2,857.8,880.2,858.7,884.6z"/>
	<path class="st0" d="M800.5,921.6c-6.7,1.8-11.2-0.5-15.5-5.5C793,910.8,796.1,916.7,800.5,921.6z"/>
	<path class="st0" d="M127.9,785.6c-4.1-0.5-9,1.6-11.7-3c-0.6-1,0.9-4.7,2.1-5c7.2-2.4,8.1,3.3,9.4,8.2
		C127.7,785.8,127.9,785.6,127.9,785.6z"/>
	<path class="st0" d="M107.6,636.5c-1-2.8-2.5-4.9-2-6.3c0.6-1.6,3-2.4,4.6-3.6c0.9,1.7,2.8,3.6,2.5,5
		C112.3,633.2,109.9,634.4,107.6,636.5z"/>
	<path class="st0" d="M484.9,786.3c3.4,0.1,5.7,1.9,5.7,5.1c0,1-3,3.2-4.3,2.9c-1.7-0.3-3.7-2.2-4.5-3.9
		C480.6,787.8,482.5,786.7,484.9,786.3z"/>
	<path class="st0" d="M379.5,849.9c-0.9,0.9-2.9,2.7-4.8,4.5c-1-1.6-3.3-4.2-2.9-4.7c1.6-2.1,3.8-4.4,6.2-5.1
		C380.3,843.9,381.4,846.2,379.5,849.9z"/>
	<path class="st0" d="M543.5,812.5c0.7-4.4,1.2-9.4,7.7-6.4c1.3,0.6,1.7,3.3,2.5,5c-3.5,0.4-7,0.7-10.5,1.1
		C543.3,812.3,543.5,812.5,543.5,812.5z"/>
	<path class="st0" d="M64.6,728.4c-0.5,3.2-2.3,5.5-5.5,5.1c-1.1-0.2-2.8-3.3-2.5-4.7c0.4-1.6,2.4-3.5,4.2-4
		C63.1,724.1,64.6,725.9,64.6,728.4z"/>
	<path class="st0" d="M86,770c-2.2,2.3-3.4,4.6-5.1,5c-1.4,0.3-3.4-1.6-5.1-2.5c1.2-1.5,2.1-3.9,3.7-4.4C81,767.7,83.1,769.1,86,770
		z"/>
	<path class="st0" d="M563.5,148.8c-3.3-6.8-1.4-11.4,2.8-12.3c4.4-1,2.6,3.2,1.5,5.5C566.9,143.8,565.6,145.5,563.5,148.8z"/>
	<path class="st0" d="M623.7,709.3c-2.6,2-4,4-5.7,4.2c-1.5,0.2-3.2-1.6-4.8-2.6c1.4-1.5,2.6-3.7,4.3-4.2
		C618.9,706.3,620.8,708,623.7,709.3z"/>
	<path class="st0" d="M789.2,785.7c7.6,0.7,16.1-2.7,22.4,4.4c0,0,0.2-0.2,0.2-0.2c-7.5-1.4-16.2,3.4-22.5-4.4
		C789.4,785.5,789.2,785.7,789.2,785.7z"/>
	<path class="st0" d="M172.3,732.1c4-7.6,8.9-14.1,17.4-17.1c1.5,5.9,2.9,11.9,4.6,18.8C186,733.2,179.2,732.6,172.3,732.1z"/>
	<path class="st0" d="M603,599.8c4.9-7.2,9.4-6.8,14.7-4.6C614.3,602.4,609.7,603.8,603,599.8z"/>
</g>
</svg>
