<?xml version="1.0" encoding="utf-8"?>
<!-- Generator: Adobe Illustrator 22.1.0, SVG Export Plug-In . SVG Version: 6.00 Build 0)  -->
<svg version="1.1" id="Layer_1" xmlns="http://www.w3.org/2000/svg" xmlns:xlink="http://www.w3.org/1999/xlink" x="0px" y="0px"
	 viewBox="0 0 1024 1024" style="enable-background:new 0 0 1024 1024;" xml:space="preserve">
<style type="text/css">
	.st0{fill:#3F6AB3;}
	.st1{fill:#3E6AB3;}
	.st2{fill:#406BB3;}
	.st3{fill:#446DB4;}
	.st4{fill:#416CB4;}
	.st5{fill:#416BB4;}
</style>
<g>
	<path class="st0" d="M395.1,904.4c-2.8-1.3-5.8-2.1-8.4-3.8c-10.2-6.8-12.6-16.8-11.4-28.3c1-9.9,4.2-19.3,7.9-28.5
		c2.4-6.1,4.9-12.2,7.7-18.1c8.9-18.9,9.5-39,8.7-59.3c-0.4-9.1-1.8-18-5.3-26.6c-1.4-3.5-3.2-4.5-7-3.5
		c-13.2,3.3-22.8,11.5-31.2,21.7c-9.3,11.3-16.3,24.2-24.3,36.3c-7.1,10.7-14.4,21.2-25.2,28.6c-1.8,1.3-3.7,4.2-6.4,2.3
		c-3.3-2.2-4.8-5.6-4.1-9.7c0.9-5,3.7-9,6.9-12.8c4.8-5.7,10.4-10.5,15.9-15.6c1.7-1.6,2.9-3.3,3.8-5.5c2.5-6.4,6.4-12,10.5-17.4
		c4.8-6.5,10.1-12.7,13.4-20.3c2.2-5,3-10.3,2.4-15.7c-0.2-1.6-0.7-2.7-2.2-3.4c-10.4-4.6-18.5-4.2-25.8,5.9
		c-2.6,3.7-4.6,7.8-6.7,11.8c-1.6,3-3.3,6.1-5.2,9c-3.8,5.6-5.2,5.8-10.8,1.8c-5.7-4.1-6.2-9.9-4.9-16.1c1.6-8.3,5.7-15.7,9.3-23.2
		c4.7-9.7,9.3-19.3,11.8-29.9c0.7-3.1-0.3-4.1-2.7-5c-1-0.4-2.7-0.1-2.6-1.8c0.1-1.5,1.3-2.3,2.7-2.5c2.6-0.3,4.8-0.8,5.3-4.1
		c0.6-3.9,0.2-7.1-3.5-9.3c-2.3-1.3-4.4-2.8-6.6-4.3c-1.6-1.1-2.7-2.6-2.8-4.7c-0.1-2.1,0.5-3.4,2.8-3.7c3.5-0.4,6.8-1.5,9.8-3.3
		c8.1-4.7,10.9-13.1,8.1-24.2c-1.5-5.8-4-11.2-7-16.4c-0.9-1.6-2.4-2.3-3.9-3c-15.6-7.4-31.6-7-47.9-3c-13.7,3.4-26.6,9.1-40.2,12.8
		c-11.7,3.2-23.4,5-35.2,1c-5.7-1.9-10.7-5.1-15.4-9c-1.5-1.3-1.7-2.5-1.2-4.4c2.6-9.3,9.3-14.1,18-16.7c8.8-2.6,17.9-2.8,27-3.2
		c13.6-0.6,27.2-0.3,40.7-3.3c16.7-3.7,28.2-13.8,35.6-29c0.4-0.9,0.9-1.7,1.1-2.7c2.3-10.5,0.2-13.1-9.7-13.8
		c-2.5-0.2-5.1-0.2-7.5-0.8c-2.3-0.5-4.4-1.4-2.7-4.7c4.7-9.2,3.7-18.3-1.1-27.1c-6.6-12-16.9-20.4-27.7-28
		c-12.4-8.8-25.5-16.4-39.8-21.8c-4-1.5-7.9-3.5-11.2-6.3c-4.4-3.7-5.6-8.6-3.6-13.9c0.8-2.1,1.9-2.8,4.3-2.6
		c13.7,1.4,25.7,7,37.3,13.8c10.2,5.9,20.2,12.4,29.5,19.7c6.1,4.8,12.2,5.3,19.3,4.1c19.6-3.4,34.4-13.5,44.3-30.8
		c0.2-0.4,0.5-0.7,0.9-1.3c2.6,5.1,7.3,7.1,12,9.2c3.3,1.5,6.7,2.7,9.8,4.4c2.2,1.2,3.4,0.5,4.8-1.1c4.8-5.5,5-11.9,4.1-18.6
		c-0.6-4.8-1.9-9.7-0.6-14.6c0.2-0.9-0.1-1.6-0.7-2.2c-16.7-17.8-27.6-39.4-39.3-60.5c-7.9-14.3-16-28.6-25.9-41.7
		c-5.9-7.7-11.8-15.4-20.6-20.2c-8.3-4.6-13.7-11.7-18.3-19.7c-3.2-5.6-6.4-11.2-9.7-16.7c-4.7-7.8-11.1-13.6-19.2-17.8
		c-5.9-3.1-12-5.9-16.9-10.7c-3.5-3.5-6.1-7.5-5.7-12.3c1.1-14.8-7.1-25.3-15.7-35.7c-7-8.4-15-16.1-21.4-25.1c-1.8-2.5-3-5.5-5-7.8
		c-6-6.9,3.7-21.7,12-21.8c1.9,0,3.4,0.6,5,1.6c9.8,6.4,17,15.3,23.7,24.7c8.1,11.4,15.3,23.4,24.3,34.2c4.8,5.8,10,11,16.7,14.3
		c9.8,4.9,16,12.7,20,22.8c4.1,10.3,7.8,20.8,14.9,29.6c3.1,3.8,6.1,7.7,9.4,11.3c6.4,7,9.7,14.9,8.6,24.5
		c-0.8,6.6,1.4,12.4,5.3,17.7c5.9,8.2,13.1,15.2,19.8,22.7c6.2,7,11,14.7,14.1,23.5c3.2,8.8,8.4,16,16.2,21.2
		c10.1,6.8,17.8,16.3,27,24.1c5.9,5,12.2,9.6,19.3,13c18.3,8.9,33.7,5.2,46.2-10.9c2.1-2.7,2.6-4.9,1.1-8.3
		c-7.4-16.6-10.7-34.3-14.3-52c-2-9.7-4-19.4-6.6-29c4.4,0,7.4,2.4,8.6,7c0.6,2.1,0.9,4.2,1.1,6.3c1.1,12.6,8.4,21.9,16.1,30.9
		c7.6,8.9,15.9,17.2,23.8,25.8c0.9,1,1.8,1.9,2.6,2.9c3.7,4.4,4.5,4.4,8.8,0.4c5.2-4.8,6.4-11.3,7.2-17.9c0.8-6.2,0.8-12.4,2.2-18.5
		c0.6-2.8,1.4-5.7,3.4-7.8c6.8-7.7,6.6-16.8,5.6-26.1c-1-9.6-3.5-19-4.3-28.7c-0.8-9.4,0.5-18.1,8.4-24.6c1.8-1.4,2.9-1.4,4.6,0
		c5.5,5,8.6,11,9.1,18.5c0.6,7.8-0.4,15.6-2.4,23.1c-4.4,16.9-2.9,33.4,1.7,49.9c2.9,10.4,5.6,20.8,4.8,31.7c0,0.7-0.3,1.5,0.7,1.8
		c1.2,0.3,2.1-0.2,2.9-0.9c1.4-1.2,2-3.4,4.4-3.3c0.8,0,1.8-0.1,2.3,0.6c0.7,1-0.3,1.5-0.7,2.1c-1,1.5-2.2,2.8-3.2,4.3
		c-1,1.4-1,3.1-0.2,4.4c0.9,1.4,2.4,0.7,3.6,0.5c13.5-2.3,25.2-8.5,36.5-16c8.5-5.6,16.8-11.5,25.3-16.9c6.1-3.9,9-3.2,14.8,1.2
		c5.6,4.2,5.5,4.5,10.8-0.2c9.8-8.6,15.6-19.8,21.2-31.2c5.4-10.9,10-22.2,16.5-32.5c2.9-4.6,6-9.1,11-12.9
		c-0.7,9.2-2.8,17.2-5.6,25c-8.2,22.8-21.5,42.2-37.8,59.8c-6.4,6.9-13.3,13.4-20.8,19.2c-2,1.5-1.9,2.5-0.3,4.1
		c3.9,4,9,5.8,13.9,7.8c6.3,2.6,12.9,4.4,18.1,9.1c1.2,1.1,2.3,0.3,3.3,0c6.6-2.5,11.5-7.2,16.1-12.2c5.5-5.9,10.3-12.6,16.6-17.8
		c2.7-2.2,5-3.7,8.4-1.2c2.5,1.8,5.6,1.7,8.6,0.5c2.6-1,5.3-1.2,8.9-0.7c-5.3,3-9.7,6-13.6,9.7c-10.5,10.1-15.5,23-19.7,36.5
		c-3.1,9.9-5.5,20-9,29.8c-2.6,7.2-5.6,14.2-10,20.6c-1.3,1.9-0.8,2.8,0.5,4.2c8,7.8,17.8,9.6,28.5,8.6c15.3-1.4,29.7-6.5,43.1-13.5
		c33.8-17.8,69.9-29.2,106.8-38.5c11.3-2.9,22.6-6.1,33.3-10.7c2.1-0.9,2.9-0.2,3.7,1.6c2.4,5.4,2.5,5.5-3.2,7.4
		c-41.8,14.2-83.2,29.5-123.1,48.4c-11,5.2-22.1,10.4-32.5,16.5c-6.5,3.8-13.3,5.5-20.6,6.5c-9.2,1.2-18.3,3.2-26.9,7.2
		c-3.8,1.8-7.3,4-10.5,6.8c-2.7,2.4-2.6,3.9,0.2,6.3c2.2,1.9,5,2.8,7.6,4c1.8,0.8,3.8,1.2,5.5,2.6c-1.6,2.2-3.6,1.7-5.4,0.8
		c-1.7-0.9-3.2-2.1-4.8-3.1c-0.8-0.5-1.8-1.7-2.8-0.7c-0.9,0.9-0.2,2.1,0.2,3c0.9,2.1,2.6,3.3,4.7,4.2c3.7,1.6,7.6,2.4,11.5,2.3
		c7.2,0,13.9,1.9,19.5,6.2c14,10.9,29.3,11.8,45.8,7.4c6.5-1.8,13.2-2,19.9-0.3c3.3,0.8,3.6,1.9,1.4,4.6c-1.9,2.2-4.4,3.2-7.3,3.3
		c-4.5,0.2-9.1,0-13.6-0.5c-2.3-0.3-5.7-0.8-6.6,1.1c-1,2.1,1.2,4.6,3,6.4c5.1,5,11.8,6,18.4,7.1c10.3,1.8,20.9,2,31.1,5.1
		c5.5,1.7,10.5,4.2,12.9,9.9c1.6,3.8,1.1,5-2.7,6.5c-6.6,2.6-13.2,1.8-19.6-0.4c-9-3.1-17.9-6.7-26.9-9.8
		c-8.3-2.8-16.7-4.2-25.2-0.5c-4.4,1.9-4.4,2.1-1,5.3c0.8,0.7,1.5,1.6,2,2.5c0.5,0.9,0.1,1.8-0.4,2.7c-0.7,1.1-1.5,0.4-2.2,0.2
		c-3.5-1.5-5.5,0.2-7,3c-1.6,2.9-2.4,6.2-4.8,8.7c-1.3,1.4,0.3,2.9,1.4,4c2,2,4.4,3.3,6.9,4.5c5.9,2.8,5.4,9.3,1.1,12.4
		c-5.1,3.8-4.9,4,0.3,7.8c6.6,4.9,13.6,9.3,19.1,15.7c3.1,3.6,5.2,7.7,5.8,12.5c0.2,1.4,0.4,2.3,2,2.9c17.1,5.9,32.2,15.6,47.7,24.5
		c10.4,5.9,20.9,11.4,32.5,14.8c6.2,1.8,12.5,2,18.8,0.9c14.7-2.7,27.9,1.5,40.3,9c8.5,5.2,15.5,12.3,23,18.9
		c7.6,6.8,15.7,12.9,24.9,17.5c0.9,0.5,1.8,1,2.2,2.1c3.7,8.5,0.4,18.5-7.5,23.1c-1.5,0.9-3,1.1-4.8,0.8
		c-12.3-1.9-23.5-6.8-34.6-12.2c-7.8-3.8-15.7-7.5-23.8-10.7c-11.5-4.6-20.9-12.5-30-20.6c-12.3-11-26.2-18.8-42.2-23.2
		c-19.2-5.3-37.5-13.5-56.5-19.3c-10.6-3.3-21.5-5.6-32.4-7.4c-4-0.7-7,1.3-9.5,4c-6.8,7.3-7.2,8.3-18.1,3c-1.4-0.7-2.8-1.3-4.3-1.8
		c-1.7-0.6-3.1-0.3-3.9,1.5c-4.4,9.4-12.1,15.5-21.3,19.3c-5.8,2.4-8.8,6.3-10.3,12.1c-1.3,5-2.7,9.9-3.5,15c-0.2,1.6,0,2.7,0.9,4
		c12,17.4,21.2,36.2,28.1,56.2c0.6,1.6,1.6,2.6,2.8,3.5c4.7,3.6,8.8,7.8,11.4,13.2c2.6,5.5,2.4,10.8-1.3,15.9
		c-1.2,1.6-2.6,2.2-4.6,1.9c-8.1-1.2-13.9-5.5-16.9-13.2c-1.9-4.7-2.7-9.6-3.8-14.5c-3-13.4-10.4-24.5-18.9-34.9
		c-12.4-15.1-27.7-27-42.9-39c-9.5-7.5-19-14.9-28.1-22.8c-2.7-2.3-6.1-2.5-9.3-3.3c-15.9-4-31.3-1.1-46.6,3.1
		c-22.2,6-41.7,17.5-59.1,32c-13.2,11-19.9,26.5-22,43.4c-1.3,10.1,2.9,19.5,7.7,28.2c5.2,9.4,10.8,18.6,16.1,27.9
		c3.4,6.2,6,12.7,7.1,19.8c0.8,5.1,0.5,10.1-1.4,14.8c-6,15.1-15.9,26.9-30.4,34.3c-2.7,1.4-5.8,2.1-8.7,3.1
		C400.9,904.4,398,904.4,395.1,904.4z"/>
	<path class="st1" d="M108.7,716.3c2.5-9,7.5-16.3,15.4-21.6c13-8.7,27.5-7.3,39.1,2.9c7.5,6.7,8.7,14.3,6.1,23.2
		c-5.3,18.6-25.7,27.5-44.8,19.7c-7.7-3.2-13.3-8.1-15.8-16.3C108.7,721.6,108.7,718.9,108.7,716.3z"/>
	<path class="st0" d="M421.3,346.6c-8.7-6-12.5-15.1-15.4-24.7c-3.6-11.9-5.3-24.2-8.5-36.2c-0.7-2.4-1.5-4.8-2.1-7.2
		c-0.3-1.1-1.8-2.6-0.2-3.5c1.6-0.9,3.5-0.8,5.1,0.4c1.5,1.2,2.1,2.9,2.7,4.6c1.2,3.4,2.1,6.8,3.3,10.2c1.4,3.9,3.3,7.5,7.2,9.4
		c2.2,1.1,1.7,3.3,1.1,4.3c-4.8,8.7-0.1,16.7,1.4,24.9C416.9,335,418.4,341,421.3,346.6z"/>
	<path class="st2" d="M200.7,57.2c10.1,10.9,11.9,26,21.6,37C213.5,90.9,200.5,68.6,200.7,57.2z"/>
	<path class="st0" d="M321,231.5c10.4,4.1,17.2,13.9,16.2,22.4c-0.1,1,0.3,2.5-1,2.8c-1.1,0.3-1.8-0.9-2.6-1.7
		c-3-2.9-4.6-6.6-6-10.4C326,240.3,324.5,235.9,321,231.5z"/>
	<path class="st0" d="M313.7,610.2c-11.8,5.5-24.5,1.4-37.1,3.2c1.3-2.8,3.5-3,5.6-3.4c7-1.4,14-0.7,21-0.7c3.5,0,6.9,0,10.4,0
		C313.7,609.6,313.7,609.9,313.7,610.2z"/>
	<path class="st2" d="M723.5,349.6c-0.8-7.3,7.8-14,17.7-14.2C738.3,343.9,729.5,344.6,723.5,349.6z"/>
	<path class="st3" d="M704.7,453.5c4.5,4.3,6.9,8.6,6.9,14.1c0,2.6-1.1,3.1-3.3,1.6c-2.5-1.7-3.3-4.3-3.5-7.1
		C704.5,459.5,704.7,456.9,704.7,453.5z"/>
	<path class="st4" d="M282,184.4c-6.4-2.3-11.8-10.2-11.5-16C278.5,170.6,276.8,179.5,282,184.4z"/>
	<path class="st5" d="M660.7,767.7c-0.4-2.7,0.9-2.6,3.1-1.6c4.3,2.1,5.7,4.2,4.6,7.3c-0.4,1.1-0.9,2.1-2.6,1.6
		C662.9,773.9,660.7,771.1,660.7,767.7z"/>
</g>
</svg>
